<svg xmlns="http://www.w3.org/2000/svg" width="2000" viewBox="0 0 1500 450" height="600" version="1"><defs><clipPath id="a"><path d="M127.691 165.77h180v180h-180zm0 0"/></clipPath><clipPath id="b"><path d="M134 172h167v167H134zm0 0"/></clipPath><clipPath id="c"><path d="M217.691 172.64c45.91 0 83.13 37.22 83.13 83.13s-37.22 83.128-83.13 83.128-83.129-37.218-83.129-83.128 37.22-83.13 83.13-83.13zm0 0" clip-rule="evenodd"/></clipPath><linearGradient x1="32.445" gradientTransform="matrix(.21177 0 0 .21177 127.692 165.77)" y1="425" x2="817.555" gradientUnits="userSpaceOnUse" y2="425" id="d"><stop stop-color="#FFF" offset="0"/><stop stop-color="#FFF" offset=".031"/><stop stop-color="#FEFEFE" offset=".063"/><stop stop-color="#FDFDFD" offset=".094"/><stop stop-color="#FCFCFC" offset=".125"/><stop stop-color="#FBFBFB" offset=".156"/><stop stop-color="#FBFBFB" offset=".188"/><stop stop-color="#FAFAFA" offset=".219"/><stop stop-color="#F9F9F9" offset=".25"/><stop stop-color="#F8F8F8" offset=".281"/><stop stop-color="#F8F8F8" offset=".313"/><stop stop-color="#F7F7F7" offset=".344"/><stop stop-color="#F6F6F6" offset=".375"/><stop stop-color="#F5F5F5" offset=".406"/><stop stop-color="#F4F4F4" offset=".438"/><stop stop-color="#F4F4F4" offset=".469"/><stop stop-color="#F3F3F3" offset=".5"/><stop stop-color="#F2F2F2" offset=".531"/><stop stop-color="#F1F1F1" offset=".563"/><stop stop-color="#F1F1F1" offset=".594"/><stop stop-color="#F0F0F0" offset=".625"/><stop stop-color="#EFEFEF" offset=".656"/><stop stop-color="#EEE" offset=".688"/><stop stop-color="#EDEDED" offset=".719"/><stop stop-color="#EDEDED" offset=".75"/><stop stop-color="#ECECEC" offset=".781"/><stop stop-color="#EBEBEB" offset=".813"/><stop stop-color="#EAEAEA" offset=".844"/><stop stop-color="#EAEAEA" offset=".875"/><stop stop-color="#E9E9E9" offset=".906"/><stop stop-color="#E8E8E8" offset=".938"/><stop stop-color="#E7E7E7" offset=".969"/><stop stop-color="#E6E6E6" offset="1"/></linearGradient></defs><path fill="#fff" d="M-150-45h1800v540H-150z"/><path fill="#0070b6" d="M-150-45h1800v540H-150z"/><path d="M367.159 268.327v-39.266h8.328v32.391h15.922v6.875zm0 0M409.963 237.733c2.781 0 5.172.54 7.172 1.61 2.007 1.062 3.554 2.605 4.64 4.625 1.094 2.023 1.64 4.492 1.64 7.406v3.984h-19.358c.093 2.313.785 4.125 2.078 5.438 1.3 1.312 3.109 1.968 5.422 1.968 1.914 0 3.671-.191 5.265-.578 1.594-.394 3.227-.988 4.906-1.78v6.343a19.131 19.131 0 0 1-4.656 1.594c-1.625.343-3.59.515-5.89.515-3.012 0-5.68-.55-8-1.656-2.313-1.113-4.133-2.805-5.454-5.078-1.312-2.27-1.968-5.133-1.968-8.594 0-3.508.593-6.43 1.78-8.766 1.196-2.343 2.86-4.097 4.985-5.265 2.133-1.176 4.614-1.766 7.438-1.766zm.062 5.828c-1.593 0-2.918.512-3.968 1.532-1.043 1.023-1.649 2.625-1.813 4.812h11.5c-.023-1.219-.246-2.3-.672-3.25a5.139 5.139 0 0 0-1.875-2.25c-.824-.562-1.883-.844-3.172-.844zm0 0M442.377 237.686c4.032 0 7.118.883 9.266 2.641 2.145 1.75 3.219 4.418 3.219 8v20h-5.719l-1.578-4.078h-.219c-.855 1.074-1.73 1.949-2.625 2.625a9.05 9.05 0 0 1-3.094 1.5c-1.167.32-2.578.484-4.234.484-1.781 0-3.375-.34-4.781-1.015-1.399-.676-2.5-1.72-3.313-3.125-.804-1.407-1.203-3.192-1.203-5.36 0-3.187 1.117-5.535 3.36-7.047 2.238-1.507 5.593-2.347 10.062-2.515l5.219-.157v-1.312c0-1.582-.414-2.738-1.235-3.469-.824-.738-1.968-1.11-3.437-1.11-1.461 0-2.887.212-4.281.626-1.399.406-2.793.93-4.188 1.562l-2.703-5.547c1.594-.832 3.375-1.488 5.344-1.968a25.512 25.512 0 0 1 6.14-.735zm4.36 16.735l-3.172.11c-2.656.062-4.5.538-5.531 1.421-1.024.875-1.532 2.027-1.532 3.453 0 1.262.364 2.156 1.094 2.688.739.523 1.696.78 2.875.78 1.758 0 3.242-.515 4.453-1.546 1.207-1.04 1.813-2.52 1.813-4.438zm0 0M480.345 237.733c3.207 0 5.785.875 7.735 2.625 1.957 1.742 2.937 4.54 2.937 8.39v19.579h-8.187v-17.531c0-2.157-.39-3.774-1.172-4.86-.781-1.093-2.008-1.64-3.672-1.64-2.5 0-4.211.851-5.125 2.547-.918 1.699-1.375 4.152-1.375 7.359v14.125h-8.188v-30.031h6.25l1.11 3.843h.453a8.28 8.28 0 0 1 2.406-2.515 10.32 10.32 0 0 1 3.188-1.422 14.12 14.12 0 0 1 3.64-.469zm0 0M546.948 248.327c0 4.418-.851 8.11-2.547 11.078-1.687 2.961-4.136 5.188-7.343 6.688-3.2 1.492-7.055 2.234-11.563 2.234H514.37v-39.266h12.328c4.113 0 7.68.73 10.703 2.188 3.032 1.46 5.38 3.62 7.047 6.484 1.664 2.856 2.5 6.387 2.5 10.594zm-8.64.203c0-2.894-.43-5.273-1.282-7.14-.855-1.876-2.11-3.258-3.765-4.157-1.657-.894-3.7-1.344-6.125-1.344h-4.438v25.563h3.578c4.063 0 7.082-1.082 9.063-3.25 1.976-2.164 2.969-5.39 2.969-9.672zm0 0M566.814 237.733c2.782 0 5.172.54 7.172 1.61 2.008 1.062 3.555 2.605 4.64 4.625 1.095 2.023 1.642 4.492 1.642 7.406v3.984h-19.36c.094 2.313.785 4.125 2.078 5.438 1.301 1.312 3.11 1.968 5.422 1.968 1.914 0 3.672-.191 5.266-.578 1.594-.394 3.226-.988 4.906-1.78v6.343a19.131 19.131 0 0 1-4.656 1.594c-1.625.343-3.59.515-5.89.515-3.013 0-5.68-.55-8-1.656-2.313-1.113-4.134-2.805-5.454-5.078-1.312-2.27-1.969-5.133-1.969-8.594 0-3.508.594-6.43 1.782-8.766 1.195-2.343 2.859-4.097 4.984-5.265 2.133-1.176 4.613-1.766 7.437-1.766zm.063 5.828c-1.594 0-2.918.512-3.969 1.532-1.043 1.023-1.648 2.625-1.812 4.812h11.5c-.024-1.219-.246-2.3-.672-3.25a5.139 5.139 0 0 0-1.875-2.25c-.824-.562-1.883-.844-3.172-.844zm0 0M594.073 268.327l-11.438-30.031h8.563l5.812 17.11c.313 1.01.563 2.073.75 3.187a29.32 29.32 0 0 1 .391 2.968h.219c.05-.945.18-1.957.39-3.03a23.7 23.7 0 0 1 .828-3.126l5.766-17.11h8.563l-11.438 30.032zm0 0M630.592 237.733c2.78 0 5.172.54 7.172 1.61 2.007 1.062 3.554 2.605 4.64 4.625 1.094 2.023 1.64 4.492 1.64 7.406v3.984h-19.359c.094 2.313.786 4.125 2.079 5.438 1.3 1.312 3.109 1.968 5.421 1.968 1.914 0 3.672-.191 5.266-.578 1.594-.394 3.227-.988 4.906-1.78v6.343a19.131 19.131 0 0 1-4.656 1.594c-1.625.343-3.59.515-5.89.515-3.012 0-5.68-.55-8-1.656-2.313-1.113-4.133-2.805-5.454-5.078-1.312-2.27-1.968-5.133-1.968-8.594 0-3.508.593-6.43 1.78-8.766 1.196-2.343 2.86-4.097 4.985-5.265 2.133-1.176 4.613-1.766 7.438-1.766zm.062 5.828c-1.594 0-2.918.512-3.969 1.532-1.043 1.023-1.648 2.625-1.812 4.812h11.5c-.024-1.219-.246-2.3-.672-3.25a5.139 5.139 0 0 0-1.875-2.25c-.824-.562-1.883-.844-3.172-.844zm0 0M658.897 268.327h-8.188v-41.781h8.188zm0 0M694.774 253.264c0 2.5-.34 4.72-1.015 6.657-.668 1.937-1.641 3.574-2.922 4.906-1.274 1.336-2.809 2.34-4.61 3.016-1.804.675-3.828 1.015-6.078 1.015-2.117 0-4.058-.34-5.828-1.015a12.657 12.657 0 0 1-4.594-3.016c-1.293-1.332-2.293-2.969-3-4.906-.71-1.938-1.062-4.157-1.062-6.657 0-3.332.586-6.148 1.765-8.453 1.188-2.312 2.868-4.066 5.047-5.265 2.188-1.207 4.797-1.813 7.828-1.813 2.813 0 5.301.606 7.47 1.813 2.175 1.199 3.882 2.953 5.124 5.265 1.25 2.305 1.875 5.121 1.875 8.453zm-20.75 0c0 1.97.211 3.625.64 4.97.427 1.343 1.095 2.355 2 3.03.915.68 2.11 1.016 3.579 1.016 1.457 0 2.633-.336 3.531-1.016.906-.675 1.567-1.687 1.985-3.03.425-1.345.64-3 .64-4.97 0-1.988-.215-3.64-.64-4.953-.418-1.32-1.086-2.312-2-2.968-.907-.664-2.094-1-3.563-1-2.168 0-3.742.746-4.719 2.234-.968 1.48-1.453 3.71-1.453 6.687zm0 0M718.246 237.733c3.383 0 6.118 1.32 8.203 3.953 2.083 2.637 3.125 6.496 3.125 11.578 0 3.399-.496 6.258-1.484 8.579-.98 2.312-2.34 4.062-4.078 5.25-1.73 1.18-3.727 1.765-5.984 1.765-1.45 0-2.696-.183-3.735-.547-1.031-.363-1.918-.836-2.656-1.422a12.683 12.683 0 0 1-1.906-1.859h-.422c.133.711.238 1.445.312 2.203.07.75.11 1.477.11 2.188v12.125h-8.188v-43.25h6.656l1.157 3.906h.375a11.26 11.26 0 0 1 1.968-2.234c.77-.676 1.696-1.22 2.782-1.625 1.082-.407 2.336-.61 3.765-.61zm-2.625 6.563c-1.437 0-2.578.297-3.422.89-.835.586-1.445 1.47-1.828 2.657-.386 1.18-.601 2.671-.64 4.484v.875c0 1.937.18 3.578.547 4.922.375 1.344.992 2.367 1.859 3.062.863.7 2.062 1.047 3.594 1.047 1.25 0 2.273-.347 3.078-1.047.812-.695 1.414-1.722 1.812-3.078.407-1.351.61-3.004.61-4.953 0-2.937-.461-5.144-1.375-6.625-.907-1.488-2.32-2.234-4.235-2.234zm0 0M771.611 237.733c3.395 0 5.961.875 7.703 2.625 1.75 1.742 2.625 4.54 2.625 8.39v19.579h-8.203v-17.531c0-2.157-.371-3.774-1.11-4.86-.73-1.093-1.866-1.64-3.406-1.64-2.168 0-3.71.777-4.625 2.328-.918 1.543-1.375 3.758-1.375 6.64v15.063h-8.187v-17.531c0-1.438-.164-2.633-.484-3.594-.325-.969-.82-1.691-1.485-2.172-.656-.488-1.5-.734-2.531-.734-1.531 0-2.73.383-3.594 1.14-.867.762-1.484 1.883-1.86 3.36-.366 1.468-.546 3.273-.546 5.406v14.125h-8.188v-30.031h6.25l1.11 3.843h.453a8.095 8.095 0 0 1 2.297-2.515 9.887 9.887 0 0 1 3.047-1.422 12.482 12.482 0 0 1 3.39-.469c2.196 0 4.063.36 5.594 1.078 1.531.72 2.707 1.828 3.531 3.328h.735a7.768 7.768 0 0 1 3.78-3.359 12.92 12.92 0 0 1 5.08-1.047zm0 0M802.723 237.733c2.781 0 5.172.54 7.172 1.61 2.008 1.062 3.554 2.605 4.64 4.625 1.094 2.023 1.641 4.492 1.641 7.406v3.984h-19.36c.094 2.313.786 4.125 2.079 5.438 1.3 1.312 3.11 1.968 5.422 1.968 1.914 0 3.672-.191 5.265-.578 1.594-.394 3.227-.988 4.907-1.78v6.343a19.131 19.131 0 0 1-4.657 1.594c-1.625.343-3.59.515-5.89.515-3.012 0-5.68-.55-8-1.656-2.313-1.113-4.133-2.805-5.453-5.078-1.313-2.27-1.97-5.133-1.97-8.594 0-3.508.595-6.43 1.782-8.766 1.195-2.343 2.86-4.097 4.984-5.265 2.133-1.176 4.614-1.766 7.438-1.766zm.062 5.828c-1.593 0-2.918.512-3.968 1.532-1.043 1.023-1.649 2.625-1.813 4.812h11.5c-.023-1.219-.246-2.3-.672-3.25a5.139 5.139 0 0 0-1.875-2.25c-.824-.562-1.883-.844-3.172-.844zm0 0M839.888 237.733c3.207 0 5.785.875 7.734 2.625 1.957 1.742 2.937 4.54 2.937 8.39v19.579h-8.187v-17.531c0-2.157-.39-3.774-1.172-4.86-.781-1.093-2.008-1.64-3.672-1.64-2.5 0-4.21.851-5.125 2.547-.918 1.699-1.375 4.152-1.375 7.359v14.125h-8.187v-30.031h6.25l1.11 3.843h.452a8.28 8.28 0 0 1 2.406-2.515 10.32 10.32 0 0 1 3.188-1.422 14.12 14.12 0 0 1 3.64-.469zm0 0M871.642 262.343c.883 0 1.754-.086 2.61-.266.85-.188 1.702-.41 2.546-.672v6.094c-.887.398-1.98.719-3.281.969-1.293.257-2.711.39-4.25.39-1.793 0-3.402-.289-4.828-.86-1.418-.581-2.532-1.593-3.344-3.03-.813-1.446-1.219-3.461-1.219-6.047v-14.469h-3.922v-3.469l4.516-2.734 2.36-6.344h5.234v6.39h8.406v6.157h-8.406v14.469c0 1.148.32 2.008.968 2.578.657.562 1.524.844 2.61.844zm0 0" fill="#fff"/><g clip-path="url(#a)"><path fill="#72df7a" d="M217.691 165.77c49.707 0 90 40.292 90 90 0 49.707-40.293 90-90 90-49.703 0-90-40.293-90-90 0-49.708 40.297-90 90-90zm0 0" fill-rule="evenodd"/></g><g clip-path="url(#b)"><g clip-path="url(#c)"><path fill="url(#d)" d="M134.563 172.64v166.258H300.82V172.641zm0 0"/></g></g><path fill="#3397e8" d="M249.457 285.828c-5.281 0-9.594-4.312-9.594-9.68 0-5.37 4.313-9.683 9.594-9.683s9.684 4.312 9.684 9.683a9.653 9.653 0 0 1-9.684 9.68zm-1.32-40.668l-7.305-7.305a1.538 1.538 0 0 1 0-2.199 1.538 1.538 0 0 1 2.2 0l4.843 4.84v-19.715c0-2.554-2.113-4.668-4.668-4.668h-41.281c-2.64 0-4.754 2.114-4.754 4.668v10.27a20.285 20.285 0 0 1 18.75 20.273c0 6.336-2.024 9.067-4.05 11.707-2.27 3.028-4.622 6.215-4.825 15.934h1.656a4.226 4.226 0 0 1 4.227 4.223 4.108 4.108 0 0 1-.989 2.832c.618.742.989 1.69.989 2.714.086 2.29-1.848 4.313-4.227 4.313h-4.031c-.836 3.117-3.645 5.457-6.973 5.457h-3.96c-3.329 0-6.137-2.34-6.86-5.457h-4.23c-2.376 0-4.227-1.938-4.227-4.313 0-1.054.383-2.007 1.008-2.738a4.368 4.368 0 0 1-1.008-2.808c0-2.375 1.937-4.223 4.226-4.223h1.48c-.202-9.719-2.554-12.906-4.823-15.934-1.938-2.64-4.051-5.37-4.051-11.707 0-10.648 8.23-19.46 18.75-20.273v-10.27c0-4.312 3.52-7.746 7.832-7.746h41.285a7.702 7.702 0 0 1 7.746 7.746v19.89l5.016-5.015a1.542 1.542 0 0 1 2.203 0 1.544 1.544 0 0 1 0 2.2l-7.39 7.39c-.223.332-.618.566-1.075.613h-.023l-.016.004h-.043l-.02.004h-.093a1.585 1.585 0 0 1-1.29-.707zm-51.844-11.078c-.211.106-.45.164-.703.164a1.58 1.58 0 0 1-.695-.156c-9.145.41-16.473 7.988-16.473 17.234 0 5.281 1.5 7.305 3.433 9.86 2.45 3.293 5.223 6.992 5.446 17.78h6.793v-13.398l-5.285-3.062c-.704-.442-.965-1.41-.528-2.113.442-.704 1.41-.97 2.114-.528l5.285 3.063 5.367-3.063c.703-.441 1.672-.175 2.11.528.44.703.175 1.671-.528 2.113l-5.367 3.078v13.383h6.793c.218-10.79 2.992-14.488 5.441-17.781 1.938-2.555 3.434-4.579 3.434-9.86 0-9.3-7.414-16.914-16.637-17.242zm-6.102 58.965c.61 1.402 2 2.375 3.637 2.375h3.961a3.948 3.948 0 0 0 3.637-2.375zm-6.812-8.54h24.594c.218-.112.464-.175.73-.175.617 0 1.145-.527 1.145-1.23 0-.707-.528-1.145-1.145-1.145h-26.055c-.703 0-1.144.527-1.144 1.145 0 .703.527 1.23 1.144 1.23.266 0 .512.063.73.176zm-.73 2.993c-.704 0-1.145.531-1.145 1.145 0 .707.527 1.234 1.144 1.234h26.055c.617 0 1.145-.527 1.145-1.234 0-.704-.528-1.145-1.145-1.145zm-13.028-44.45c-.262 0-.527-.09-.793-.175l-4.574-2.64c-.707-.442-.969-1.32-.617-2.114.441-.703 1.32-.969 2.113-.617l4.574 2.64c.707.442.969 1.32.617 2.114-.265.441-.793.793-1.32.793zm11.004-11.09c-.527 0-1.059-.265-1.32-.792l-2.64-4.578c-.442-.703-.177-1.672.616-2.113.703-.438 1.672-.176 2.11.617l2.64 4.578c.442.703.176 1.672-.613 2.113-.266.176-.531.176-.793.176zm41.195 11.09c-.53 0-1.058-.265-1.32-.792-.441-.703-.176-1.672.613-2.113l4.578-2.641c.704-.438 1.672-.176 2.114.617.441.703.175 1.672-.618 2.113l-4.578 2.641c-.261.086-.527.176-.789.176zm-11.093-11.09c-.262 0-.528-.089-.79-.175-.707-.441-.968-1.32-.617-2.113l2.64-4.578c.442-.703 1.321-.969 2.114-.617.703.441.969 1.32.613 2.113l-2.64 4.578c-.262.527-.79.793-1.32.793zm-26.934 23.767a1.582 1.582 0 0 1-1.586-1.586c0-8.891 7.219-16.11 16.11-16.11.878 0 1.585.707 1.585 1.586 0 .88-.707 1.586-1.586 1.586a12.997 12.997 0 0 0-13.027 13.027c0 .79-.703 1.497-1.496 1.497zm69.45 42.777h-7.571a1.575 1.575 0 0 1-1.582-1.582v-3.7c-1.059-.35-2.028-.792-2.992-1.23l-2.555 2.551a1.538 1.538 0 0 1-2.2 0l-5.37-5.281a1.63 1.63 0 0 1-.442-1.055c0-.352.18-.793.442-1.059l2.554-2.55c-.53-.97-.882-2.028-1.234-2.993h-3.695a1.58 1.58 0 0 1-1.586-1.585v-7.57a1.58 1.58 0 0 1 1.586-1.587h3.785c.262-.965.703-2.023 1.23-2.992l-2.64-2.64a1.63 1.63 0 0 1-.442-1.055c0-.352.18-.793.442-1.059l5.37-5.281a1.544 1.544 0 0 1 2.2 0l2.64 2.465c.97-.528 1.938-.965 2.993-1.23v-3.61c0-.879.707-1.586 1.586-1.586h7.57c.879 0 1.582.707 1.582 1.586v3.7c1.059.35 2.027.788 2.996 1.23l2.55-2.555a1.544 1.544 0 0 1 2.2 0l5.281 5.281c.266.266.442.707.442 1.059 0 .351-.176.793-.442 1.054l-2.55 2.555c.527.969.968 2.024 1.32 2.992h3.61c.878 0 1.581.703 1.581 1.586v7.567c0 .882-.703 1.586-1.582 1.586h-3.61a23.046 23.046 0 0 1-1.233 2.992l2.554 2.555c.266.261.442.703.442 1.054 0 .352-.176.793-.442 1.059l-5.281 5.281a1.544 1.544 0 0 1-2.2 0l-2.554-2.555c-.879.528-1.937.88-2.992 1.235v3.695c-.176.969-.879 1.672-1.762 1.672zm-5.985-3.082h4.488v-3.254c0-.707.441-1.32 1.145-1.496 1.761-.442 3.168-1.059 4.402-1.852.613-.437 1.406-.351 1.937.176l2.375 2.29 3.168-3.169-2.375-2.289c-.527-.527-.617-1.32-.175-1.937a13.348 13.348 0 0 0 1.847-4.313c.176-.703.793-1.23 1.496-1.23h3.258v-4.489h-3.258c-.703 0-1.32-.527-1.496-1.234-.351-1.496-.968-2.902-1.847-4.313a1.73 1.73 0 0 1 .175-1.937l2.375-2.375-3.168-3.168-2.375 2.29c-.53.526-1.324.612-1.851.26-1.32-.792-2.817-1.405-4.399-1.847-.707-.176-1.144-.793-1.144-1.496v-3.258h-4.492v3.258c0 .703-.438 1.32-1.14 1.496-1.587.352-2.997.969-4.403 1.848-.617.351-1.41.265-1.848-.266l-2.379-2.375-3.168 3.168 2.29 2.29c.527.527.617 1.234.265 1.847-.883 1.5-1.5 2.996-1.762 4.402-.176.703-.793 1.235-1.496 1.235h-3.348v4.488h3.348c.703 0 1.32.527 1.496 1.23a15.421 15.421 0 0 0 1.758 4.313c.356.617.266 1.41-.262 1.851l-2.289 2.29 3.168 3.167 2.38-2.378c.526-.528 1.32-.614 1.847-.262 1.406.879 2.816 1.496 4.398 1.847.707.176 1.145.793 1.145 1.497v3.695zm2.199-25.79c-3.61 0-6.512 2.907-6.512 6.602 0 3.696 2.903 6.602 6.512 6.602 3.61 0 6.602-2.906 6.602-6.602 0-3.695-2.993-6.601-6.602-6.601zm0 0" fill-rule="evenodd"/></svg>