<svg xmlns="http://www.w3.org/2000/svg" width="2000" viewBox="0 0 1500 450" height="600" version="1"><defs><clipPath id="a"><path d="M703 225h94v9.672h-94zm0 0"/></clipPath><clipPath id="b"><path d="M796.98 230.246c0 .145-.074.29-.226.434-.149.144-.375.285-.672.43-.3.14-.672.28-1.117.421-.445.137-.961.274-1.547.406-.586.137-1.242.266-1.965.395a79.48 79.48 0 0 1-2.36.371c-.855.121-1.765.238-2.738.348a163.58 163.58 0 0 1-6.488.613c-1.187.094-2.414.18-3.691.262-1.274.078-2.586.152-3.942.222a393.27 393.27 0 0 1-4.152.184c-1.414.055-2.855.106-4.324.148-1.469.04-2.953.075-4.457.106-1.504.027-3.016.047-4.543.062-1.528.016-3.055.02-4.59.02-1.531 0-3.063-.004-4.586-.02a572.568 572.568 0 0 1-4.547-.062 757.157 757.157 0 0 1-4.453-.106c-1.469-.042-2.91-.093-4.328-.148-1.414-.055-2.8-.117-4.152-.184a252.295 252.295 0 0 1-11.031-.773 163.58 163.58 0 0 1-3.087-.324 94.398 94.398 0 0 1-2.738-.348 79.479 79.479 0 0 1-2.36-.371 38.631 38.631 0 0 1-1.964-.394 20.975 20.975 0 0 1-1.547-.407 9.006 9.006 0 0 1-1.117-.422c-.301-.144-.524-.285-.676-.43-.148-.144-.223-.288-.223-.433 0-.144.075-.289.223-.434a2.56 2.56 0 0 1 .676-.43c.297-.14.672-.28 1.117-.421.441-.137.96-.274 1.547-.41a43.77 43.77 0 0 1 1.965-.39c.722-.13 1.508-.25 2.36-.372.85-.121 1.765-.238 2.737-.351.973-.11 2-.22 3.086-.32 1.082-.102 2.215-.2 3.403-.294 1.183-.09 2.414-.176 3.687-.258 1.278-.078 2.59-.152 3.942-.222 1.351-.067 2.738-.13 4.152-.184a399.72 399.72 0 0 1 8.781-.254c1.504-.027 3.02-.05 4.547-.062a447.534 447.534 0 0 1 9.176 0 431.506 431.506 0 0 1 9 .168c1.469.043 2.91.09 4.324.148 1.418.055 2.8.117 4.152.184 1.356.07 2.668.144 3.942.222a324.7 324.7 0 0 1 3.691.258c1.184.094 2.32.192 3.403.293 1.085.102 2.113.211 3.085.32.973.114 1.883.231 2.739.352.851.121 1.636.242 2.36.371.722.13 1.378.258 1.964.39.586.137 1.102.274 1.547.41.445.142.816.282 1.117.423.297.14.523.285.672.43.152.144.226.289.226.433zm0 0"/></clipPath><radialGradient gradientTransform="matrix(1.83348 0 0 .16652 673.725 213.01)" gradientUnits="userSpaceOnUse" r="18.116" cx="41.693" id="c" cy="103.502" fx="41.693" fy="103.502"><stop offset="0"/><stop stop-color="#010101" offset=".004"/><stop stop-color="#020202" offset=".008"/><stop stop-color="#030303" offset=".012"/><stop stop-color="#040404" offset=".016"/><stop stop-color="#050505" offset=".02"/><stop stop-color="#060606" offset=".023"/><stop stop-color="#070707" offset=".027"/><stop stop-color="#080808" offset=".031"/><stop stop-color="#090909" offset=".035"/><stop stop-color="#0A0A0A" offset=".039"/><stop stop-color="#0B0B0B" offset=".043"/><stop stop-color="#0C0C0C" offset=".047"/><stop stop-color="#0D0D0D" offset=".051"/><stop stop-color="#0E0E0E" offset=".055"/><stop stop-color="#0F0F0F" offset=".059"/><stop stop-color="#101010" offset=".063"/><stop stop-color="#111" offset=".066"/><stop stop-color="#121212" offset=".07"/><stop stop-color="#131313" offset=".074"/><stop stop-color="#141414" offset=".078"/><stop stop-color="#151515" offset=".082"/><stop stop-color="#161616" offset=".086"/><stop stop-color="#171717" offset=".09"/><stop stop-color="#181818" offset=".094"/><stop stop-color="#191919" offset=".098"/><stop stop-color="#1A1A1A" offset=".102"/><stop stop-color="#1B1B1B" offset=".105"/><stop stop-color="#1C1C1C" offset=".109"/><stop stop-color="#1D1D1D" offset=".113"/><stop stop-color="#1E1E1E" offset=".117"/><stop stop-color="#1F1F1F" offset=".121"/><stop stop-color="#202020" offset=".125"/><stop stop-color="#212121" offset=".129"/><stop stop-color="#222" offset=".133"/><stop stop-color="#232323" offset=".137"/><stop stop-color="#242424" offset=".141"/><stop stop-color="#252525" offset=".145"/><stop stop-color="#262626" offset=".148"/><stop stop-color="#272727" offset=".152"/><stop stop-color="#282828" offset=".156"/><stop stop-color="#292929" offset=".16"/><stop stop-color="#2A2A2A" offset=".164"/><stop stop-color="#2B2B2B" offset=".168"/><stop stop-color="#2C2C2C" offset=".172"/><stop stop-color="#2D2D2D" offset=".176"/><stop stop-color="#2E2E2E" offset=".18"/><stop stop-color="#2F2F2F" offset=".184"/><stop stop-color="#303030" offset=".188"/><stop stop-color="#313131" offset=".191"/><stop stop-color="#323232" offset=".195"/><stop stop-color="#333" offset=".199"/><stop stop-color="#343434" offset=".203"/><stop stop-color="#353535" offset=".207"/><stop stop-color="#363636" offset=".211"/><stop stop-color="#373737" offset=".215"/><stop stop-color="#383838" offset=".219"/><stop stop-color="#393939" offset=".223"/><stop stop-color="#3A3A3A" offset=".227"/><stop stop-color="#3B3B3B" offset=".23"/><stop stop-color="#3C3C3C" offset=".234"/><stop stop-color="#3D3D3D" offset=".238"/><stop stop-color="#3E3E3E" offset=".242"/><stop stop-color="#3F3F3F" offset=".246"/><stop stop-color="#404040" offset=".25"/><stop stop-color="#414141" offset=".254"/><stop stop-color="#424242" offset=".258"/><stop stop-color="#434343" offset=".262"/><stop stop-color="#444" offset=".266"/><stop stop-color="#454545" offset=".27"/><stop stop-color="#464646" offset=".273"/><stop stop-color="#474747" offset=".277"/><stop stop-color="#484848" offset=".281"/><stop stop-color="#494949" offset=".285"/><stop stop-color="#4A4A4A" offset=".289"/><stop stop-color="#4B4B4B" offset=".293"/><stop stop-color="#4C4C4C" offset=".297"/><stop stop-color="#4D4D4D" offset=".301"/><stop stop-color="#4E4E4E" offset=".305"/><stop stop-color="#4F4F4F" offset=".309"/><stop stop-color="#505050" offset=".313"/><stop stop-color="#515151" offset=".316"/><stop stop-color="#525252" offset=".32"/><stop stop-color="#535353" offset=".324"/><stop stop-color="#545454" offset=".328"/><stop stop-color="#555" offset=".332"/><stop stop-color="#565656" offset=".336"/><stop stop-color="#575757" offset=".34"/><stop stop-color="#585858" offset=".344"/><stop stop-color="#595959" offset=".348"/><stop stop-color="#5A5A5A" offset=".352"/><stop stop-color="#5B5B5B" offset=".355"/><stop stop-color="#5C5C5C" offset=".359"/><stop stop-color="#5D5D5D" offset=".363"/><stop stop-color="#5E5E5E" offset=".367"/><stop stop-color="#5F5F5F" offset=".371"/><stop stop-color="#606060" offset=".375"/><stop stop-color="#616161" offset=".379"/><stop stop-color="#626262" offset=".383"/><stop stop-color="#636363" offset=".387"/><stop stop-color="#646464" offset=".391"/><stop stop-color="#656565" offset=".395"/><stop stop-color="#666" offset=".398"/><stop stop-color="#676767" offset=".402"/><stop stop-color="#686868" offset=".406"/><stop stop-color="#696969" offset=".41"/><stop stop-color="#6A6A6A" offset=".414"/><stop stop-color="#6B6B6B" offset=".418"/><stop stop-color="#6C6C6C" offset=".422"/><stop stop-color="#6D6D6D" offset=".426"/><stop stop-color="#6E6E6E" offset=".43"/><stop stop-color="#6F6F6F" offset=".434"/><stop stop-color="#707070" offset=".438"/><stop stop-color="#717171" offset=".441"/><stop stop-color="#727272" offset=".445"/><stop stop-color="#737373" offset=".449"/><stop stop-color="#747474" offset=".453"/><stop stop-color="#757575" offset=".457"/><stop stop-color="#767676" offset=".461"/><stop stop-color="#777" offset=".465"/><stop stop-color="#787878" offset=".469"/><stop stop-color="#797979" offset=".473"/><stop stop-color="#7A7A7A" offset=".477"/><stop stop-color="#7B7B7B" offset=".48"/><stop stop-color="#7C7C7C" offset=".484"/><stop stop-color="#7D7D7D" offset=".488"/><stop stop-color="#7E7E7E" offset=".492"/><stop stop-color="#7F7F7F" offset=".496"/><stop stop-color="gray" offset=".5"/><stop stop-color="#818181" offset=".504"/><stop stop-color="#828282" offset=".508"/><stop stop-color="#838383" offset=".512"/><stop stop-color="#848484" offset=".516"/><stop stop-color="#858585" offset=".52"/><stop stop-color="#868686" offset=".523"/><stop stop-color="#878787" offset=".527"/><stop stop-color="#888" offset=".531"/><stop stop-color="#898989" offset=".535"/><stop stop-color="#8A8A8A" offset=".539"/><stop stop-color="#8B8B8B" offset=".543"/><stop stop-color="#8C8C8C" offset=".547"/><stop stop-color="#8D8D8D" offset=".551"/><stop stop-color="#8E8E8E" offset=".555"/><stop stop-color="#8F8F8F" offset=".559"/><stop stop-color="#909090" offset=".563"/><stop stop-color="#919191" offset=".566"/><stop stop-color="#929292" offset=".57"/><stop stop-color="#939393" offset=".574"/><stop stop-color="#949494" offset=".578"/><stop stop-color="#959595" offset=".582"/><stop stop-color="#969696" offset=".586"/><stop stop-color="#979797" offset=".59"/><stop stop-color="#989898" offset=".594"/><stop stop-color="#999" offset=".598"/><stop stop-color="#9A9A9A" offset=".602"/><stop stop-color="#9B9B9B" offset=".605"/><stop stop-color="#9C9C9C" offset=".609"/><stop stop-color="#9D9D9D" offset=".613"/><stop stop-color="#9E9E9E" offset=".617"/><stop stop-color="#9F9F9F" offset=".621"/><stop stop-color="#A0A0A0" offset=".625"/><stop stop-color="#A1A1A1" offset=".629"/><stop stop-color="#A2A2A2" offset=".633"/><stop stop-color="#A3A3A3" offset=".637"/><stop stop-color="#A4A4A4" offset=".641"/><stop stop-color="#A5A5A5" offset=".645"/><stop stop-color="#A6A6A6" offset=".648"/><stop stop-color="#A7A7A7" offset=".652"/><stop stop-color="#A8A8A8" offset=".656"/><stop stop-color="#A9A9A9" offset=".66"/><stop stop-color="#AAA" offset=".664"/><stop stop-color="#ABABAB" offset=".668"/><stop stop-color="#ACACAC" offset=".672"/><stop stop-color="#ADADAD" offset=".676"/><stop stop-color="#AEAEAE" offset=".68"/><stop stop-color="#AFAFAF" offset=".684"/><stop stop-color="#B0B0B0" offset=".688"/><stop stop-color="#B1B1B1" offset=".691"/><stop stop-color="#B2B2B2" offset=".695"/><stop stop-color="#B3B3B3" offset=".699"/><stop stop-color="#B4B4B4" offset=".703"/><stop stop-color="#B5B5B5" offset=".707"/><stop stop-color="#B6B6B6" offset=".711"/><stop stop-color="#B7B7B7" offset=".715"/><stop stop-color="#B8B8B8" offset=".719"/><stop stop-color="#B9B9B9" offset=".723"/><stop stop-color="#BABABA" offset=".727"/><stop stop-color="#BBB" offset=".73"/><stop stop-color="#BCBCBC" offset=".734"/><stop stop-color="#BDBDBD" offset=".738"/><stop stop-color="#BEBEBE" offset=".742"/><stop stop-color="#BFBFBF" offset=".746"/><stop stop-color="silver" offset=".75"/><stop stop-color="#C1C1C1" offset=".754"/><stop stop-color="#C2C2C2" offset=".758"/><stop stop-color="#C3C3C3" offset=".762"/><stop stop-color="#C4C4C4" offset=".766"/><stop stop-color="#C5C5C5" offset=".77"/><stop stop-color="#C6C6C6" offset=".773"/><stop stop-color="#C7C7C7" offset=".777"/><stop stop-color="#C8C8C8" offset=".781"/><stop stop-color="#C9C9C9" offset=".785"/><stop stop-color="#CACACA" offset=".789"/><stop stop-color="#CBCBCB" offset=".793"/><stop stop-color="#CCC" offset=".797"/><stop stop-color="#CDCDCD" offset=".801"/><stop stop-color="#CECECE" offset=".805"/><stop stop-color="#CFCFCF" offset=".809"/><stop stop-color="#D0D0D0" offset=".813"/><stop stop-color="#D1D1D1" offset=".816"/><stop stop-color="#D2D2D2" offset=".82"/><stop stop-color="#D3D3D3" offset=".824"/><stop stop-color="#D4D4D4" offset=".828"/><stop stop-color="#D5D5D5" offset=".832"/><stop stop-color="#D6D6D6" offset=".836"/><stop stop-color="#D7D7D7" offset=".84"/><stop stop-color="#D8D8D8" offset=".844"/><stop stop-color="#D9D9D9" offset=".848"/><stop stop-color="#DADADA" offset=".852"/><stop stop-color="#DBDBDB" offset=".855"/><stop stop-color="#DCDCDC" offset=".859"/><stop stop-color="#DDD" offset=".863"/><stop stop-color="#DEDEDE" offset=".867"/><stop stop-color="#DFDFDF" offset=".871"/><stop stop-color="#E0E0E0" offset=".875"/><stop stop-color="#E1E1E1" offset=".879"/><stop stop-color="#E2E2E2" offset=".883"/><stop stop-color="#E3E3E3" offset=".887"/><stop stop-color="#E4E4E4" offset=".891"/><stop stop-color="#E5E5E5" offset=".895"/><stop stop-color="#E6E6E6" offset=".898"/><stop stop-color="#E7E7E7" offset=".902"/><stop stop-color="#E8E8E8" offset=".906"/><stop stop-color="#E9E9E9" offset=".91"/><stop stop-color="#EAEAEA" offset=".914"/><stop stop-color="#EBEBEB" offset=".918"/><stop stop-color="#ECECEC" offset=".922"/><stop stop-color="#EDEDED" offset=".926"/><stop stop-color="#EEE" offset=".93"/><stop stop-color="#EFEFEF" offset=".934"/><stop stop-color="#F0F0F0" offset=".938"/><stop stop-color="#F1F1F1" offset=".941"/><stop stop-color="#F2F2F2" offset=".945"/><stop stop-color="#F3F3F3" offset=".949"/><stop stop-color="#F4F4F4" offset=".953"/><stop stop-color="#F5F5F5" offset=".957"/><stop stop-color="#F6F6F6" offset=".961"/><stop stop-color="#F7F7F7" offset=".965"/><stop stop-color="#F8F8F8" offset=".969"/><stop stop-color="#F9F9F9" offset=".973"/><stop stop-color="#FAFAFA" offset=".977"/><stop stop-color="#FBFBFB" offset=".98"/><stop stop-color="#FCFCFC" offset=".984"/><stop stop-color="#FDFDFD" offset=".988"/><stop stop-color="#FEFEFE" offset=".992"/><stop stop-color="#FFF" offset=".996"/><stop stop-color="#FFF" offset="1"/></radialGradient><clipPath id="d"><path d="M749 54.672h3V79h-3zm0 0"/></clipPath><clipPath id="e"><path d="M678.563 105H702v10h-23.438zm0 0"/></clipPath><clipPath id="f"><path d="M678.563 144H702v10h-23.438zm0 0"/></clipPath><clipPath id="g"><path d="M798 144h23.813v10H798zm0 0"/></clipPath><clipPath id="h"><path d="M798 105h23.813v10H798zm0 0"/></clipPath></defs><path fill="#fff" d="M-150-45h1800v540H-150z"/><path fill="#fff" d="M-150-45h1800v540H-150z"/><g clip-path="url(#a)"><g clip-path="url(#b)"><path fill="url(#c)" d="M703.36 225.82v8.848h93.62v-8.848zm0 0"/></g></g><path fill="#ffde00" d="M796.09 129.55a46.191 46.191 0 0 1-.883 8.934 46.178 46.178 0 0 1-1.094 4.36 46 46 0 0 1-3.445 8.297 46.346 46.346 0 0 1-2.316 3.851 45.99 45.99 0 0 1-9.05 9.96 46.527 46.527 0 0 1-7.486 4.99 45.645 45.645 0 0 1-8.316 3.434 45.818 45.818 0 0 1-13.332 1.972c-1.504 0-3.004-.075-4.5-.22a46.43 46.43 0 0 1-4.457-.66 45.239 45.239 0 0 1-4.371-1.093 45.594 45.594 0 0 1-8.316-3.434 45.732 45.732 0 0 1-10.824-8.008 46.97 46.97 0 0 1-3.028-3.328 45.762 45.762 0 0 1-2.684-3.613 45.304 45.304 0 0 1-4.242-7.918 44.682 44.682 0 0 1-1.52-4.23 45.01 45.01 0 0 1-1.093-4.36 45 45 0 0 1-.66-4.445 45.314 45.314 0 0 1 0-8.98 45.589 45.589 0 0 1 5.2-17.098 44.766 44.766 0 0 1 2.315-3.856 44.988 44.988 0 0 1 2.684-3.609 47.03 47.03 0 0 1 3.027-3.332 45.732 45.732 0 0 1 10.824-8.008 45.594 45.594 0 0 1 8.317-3.433c1.437-.438 2.894-.801 4.37-1.094a46.43 46.43 0 0 1 4.458-.66 46.773 46.773 0 0 1 4.5-.219c1.504 0 3.004.074 4.504.219a45.818 45.818 0 0 1 8.828 1.754 45.645 45.645 0 0 1 8.316 3.433 46.511 46.511 0 0 1 7.485 4.989 46.114 46.114 0 0 1 3.34 3.02 46.05 46.05 0 0 1 3.023 3.331 44.113 44.113 0 0 1 2.688 3.61 45.782 45.782 0 0 1 6.855 16.507 46.191 46.191 0 0 1 .883 8.938zm0 0"/><path fill="#fff" d="M742.285 99.262c.278.34.48.726.613 1.172.133.441.192.93.176 1.46a7.423 7.423 0 0 1-.265 1.692 11.563 11.563 0 0 1-.7 1.863 16.454 16.454 0 0 1-1.105 1.961 21.767 21.767 0 0 1-1.469 1.985c-.547.656-1.137 1.3-1.773 1.93a28.557 28.557 0 0 1-4.191 3.402c-.747.496-1.497.945-2.25 1.343-.759.399-1.509.746-2.247 1.035-.738.29-1.457.516-2.148.68-.696.168-1.352.27-1.973.309a7.598 7.598 0 0 1-1.715-.082 4.641 4.641 0 0 1-1.398-.469 3.322 3.322 0 0 1-1.028-.836 3.367 3.367 0 0 1-.609-1.168 4.7 4.7 0 0 1-.18-1.46 7.26 7.26 0 0 1 .27-1.696c.16-.598.394-1.219.7-1.863.3-.641.671-1.297 1.105-1.961.43-.664.922-1.325 1.465-1.98.546-.661 1.14-1.302 1.777-1.93a28.282 28.282 0 0 1 4.188-3.402 25.55 25.55 0 0 1 2.253-1.345 21.485 21.485 0 0 1 2.242-1.035 16.95 16.95 0 0 1 2.149-.683 11.45 11.45 0 0 1 1.973-.305 7.202 7.202 0 0 1 1.718.082c.524.094.989.246 1.399.469.406.218.75.496 1.023.832zm0 0" fill-opacity=".518"/><g clip-path="url(#d)"><path fill="#ffde00" d="M750.168 78.93a1.062 1.062 0 0 1-1.059-1.059v-22.14a1.06 1.06 0 0 1 2.117 0v22.144c0 .582-.472 1.055-1.058 1.055zm0 0"/></g><path fill="#ffb900" d="M734.16 81.004a.608.608 0 0 1-.574-.414l-3.824-11.75a.603.603 0 0 1 .386-.762.607.607 0 0 1 .762.387l3.828 11.75a.605.605 0 0 1-.578.789zm0 0M708.254 99.777a.6.6 0 0 1-.356-.113l-10.02-7.262a.605.605 0 0 1-.136-.843.613.613 0 0 1 .848-.133l10.02 7.261a.6.6 0 0 1 .132.84.597.597 0 0 1-.488.25zm0 0M698.36 130.148h-12.387a.605.605 0 0 1-.606-.601c0-.336.274-.606.606-.606h12.386a.604.604 0 1 1 0 1.207zm0 0M698.234 167.785a.604.604 0 0 1-.355-1.094l10.02-7.257a.601.601 0 0 1 .843.132.602.602 0 0 1-.133.844l-10.02 7.258a.58.58 0 0 1-.355.117zm0 0M802.105 167.785a.587.587 0 0 1-.355-.117l-10.02-7.258a.606.606 0 0 1-.136-.844.61.61 0 0 1 .847-.132l10.02 7.257c.27.196.332.575.133.844a.602.602 0 0 1-.489.25zm0 0M814.363 130.148H801.98a.603.603 0 1 1 0-1.207h12.383a.604.604 0 1 1 0 1.207zm0 0M792.086 99.777a.604.604 0 0 1-.492-.25.598.598 0 0 1 .136-.84l10.02-7.261a.605.605 0 0 1 .71.976l-10.019 7.262a.638.638 0 0 1-.355.113zm0 0M766.18 81.004a.838.838 0 0 1-.192-.027.604.604 0 0 1-.386-.762l3.828-11.75a.604.604 0 0 1 1.148.375l-3.828 11.75a.59.59 0 0 1-.57.414zm0 0"/><path fill="#ffde00" d="M719.719 88.797a1.06 1.06 0 0 1-.856-.434L705.81 70.445a1.052 1.052 0 0 1 .234-1.472 1.052 1.052 0 0 1 1.473.234l13.054 17.918a1.055 1.055 0 0 1-.23 1.473c-.192.132-.406.199-.621.199zm0 0"/><g clip-path="url(#e)"><path fill="#ffde00" d="M700.895 114.633c-.11 0-.22-.016-.325-.047l-21.117-6.848a1.052 1.052 0 0 1-.68-1.324 1.06 1.06 0 0 1 1.332-.68l21.122 6.848c.554.18.859.773.675 1.324a1.062 1.062 0 0 1-1.007.727zm0 0"/></g><g clip-path="url(#f)"><path fill="#ffde00" d="M679.781 153.414c-.449 0-.863-.285-1.008-.73a1.053 1.053 0 0 1 .68-1.329l21.117-6.843a1.05 1.05 0 0 1 1.332.675 1.05 1.05 0 0 1-.675 1.329l-21.122 6.847c-.109.035-.222.051-.324.051zm0 0"/></g><path fill="#ffde00" d="M706.664 190.324c-.21 0-.43-.066-.617-.203-.473-.344-.578-1-.235-1.473l13.055-17.914a1.06 1.06 0 0 1 1.477-.238c.468.344.574 1.004.23 1.473L707.52 189.89a1.06 1.06 0 0 1-.856.433zm0 0M793.672 190.324c-.324 0-.649-.152-.856-.433l-13.05-17.918a1.053 1.053 0 1 1 1.707-1.234l13.054 17.913a1.051 1.051 0 0 1-.855 1.672zm0 0"/><g clip-path="url(#g)"><path fill="#ffde00" d="M820.559 153.414c-.11 0-.215-.02-.325-.05l-21.12-6.844a1.052 1.052 0 0 1-.677-1.329 1.05 1.05 0 0 1 1.329-.675l21.12 6.843c.555.18.86.774.677 1.328-.141.442-.56.727-1.004.727zm0 0"/></g><g clip-path="url(#h)"><path fill="#ffde00" d="M799.445 114.633c-.449 0-.86-.281-1.008-.73a1.05 1.05 0 0 1 .68-1.325l21.121-6.844a1.048 1.048 0 0 1 1.328.676 1.05 1.05 0 0 1-.675 1.328l-21.121 6.844c-.11.035-.22.05-.325.05zm0 0"/></g><path fill="#ffde00" d="M780.621 88.797c-.215 0-.433-.067-.621-.203a1.048 1.048 0 0 1-.23-1.473l13.05-17.918a1.063 1.063 0 0 1 1.477-.234c.473.344.578 1.004.234 1.472L781.477 88.36c-.207.29-.532.438-.856.438zm0 0"/><path fill="#ffb900" d="M796.09 129.55c0-14.82-7.063-28-18.008-36.37a45.506 45.506 0 0 1 7.574 26.074c-.457 24.988-21.093 45.078-46.148 44.945a45.823 45.823 0 0 1-27.672-9.426 46.253 46.253 0 0 0 5.844 7.141c5.55 5.543 8.625 13.086 8.625 20.918v8.184h47.73v-8.184c0-7.836 3.074-15.375 8.63-20.922 8.292-8.289 13.425-19.73 13.425-32.36zm0 0"/><path fill="#2e3545" d="M774.035 190.258v15.226c0 .137 0 .274-.004.414a21.066 21.066 0 0 1-.718 5.07 20.626 20.626 0 0 1-1.602 4.137 21.17 21.17 0 0 1-10.016 9.555h-.004a21.113 21.113 0 0 1-8.793 1.906h-5.457c-3.132 0-6.113-.683-8.789-1.906h-.004a20.922 20.922 0 0 1-5.953-4.078 20.91 20.91 0 0 1-2.91-3.512 20.797 20.797 0 0 1-2.305-4.648 21.13 21.13 0 0 1-.945-3.785 21.503 21.503 0 0 1-.23-3.153v-15.226zm0 0"/><path fill="#585d6a" d="M774.035 197.008l-47.73 6.695v-3.918l47.73-6.695zm0 0M774.035 201.984v3.918h-.004l-46.55 6.524a21.13 21.13 0 0 1-.946-3.785zm0 0M773.309 210.973a20.626 20.626 0 0 1-1.602 4.136l-39.02 5.473a20.728 20.728 0 0 1-2.91-3.508zm0 0"/><path fill="#232834" d="M758.836 229.875H741.5l-2.887-5.273h23.11zm0 0"/><path fill="#fff" d="M760.992 190.262h-2.957v-44.547h-15.734v44.547h-2.953v-44.547h-3.582c-3.606 0-6.54-2.926-6.54-6.524v-2.195c0-3.594 2.934-6.52 6.54-6.52 3.605 0 6.539 2.926 6.539 6.52v5.766h15.734v-5.766c0-3.594 2.934-6.52 6.54-6.52 3.605 0 6.538 2.926 6.538 6.52v2.195c0 3.598-2.933 6.524-6.539 6.524H761v44.547zm0-47.496h3.578a3.582 3.582 0 0 0 3.582-3.57V137c0-1.969-1.609-3.57-3.582-3.57a3.578 3.578 0 0 0-3.578 3.57zm-25.23-9.34a3.581 3.581 0 0 0-3.578 3.57v2.195a3.578 3.578 0 0 0 3.578 3.57h3.582v-5.765c.004-1.965-1.606-3.57-3.582-3.57zm0 0"/><path d="M642.878 296.904h-9.454l-10.296-16.547-3.516 2.532v14.015h-8.328V257.64h8.328v17.968a146.1 146.1 0 0 0 1.625-2.312c.539-.77 1.094-1.54 1.656-2.313l10.625-13.343h9.25l-13.703 17.375zm0 0M659.539 266.31c2.781 0 5.172.54 7.172 1.61 2.008 1.062 3.555 2.605 4.64 4.625 1.094 2.023 1.641 4.492 1.641 7.406v3.984h-19.36c.095 2.313.786 4.125 2.079 5.438 1.3 1.312 3.11 1.969 5.422 1.969 1.914 0 3.672-.192 5.265-.578 1.594-.395 3.227-.989 4.907-1.782v6.344a19.131 19.131 0 0 1-4.657 1.594c-1.625.344-3.59.515-5.89.515-3.012 0-5.68-.55-8-1.656-2.313-1.113-4.133-2.804-5.453-5.078-1.313-2.27-1.97-5.133-1.97-8.594 0-3.507.595-6.43 1.782-8.765 1.195-2.344 2.86-4.098 4.985-5.266 2.132-1.176 4.613-1.766 7.437-1.766zm.063 5.829c-1.594 0-2.918.511-3.97 1.53-1.042 1.024-1.648 2.626-1.812 4.813h11.5c-.023-1.218-.246-2.3-.672-3.25a5.139 5.139 0 0 0-1.875-2.25c-.824-.562-1.882-.843-3.171-.843zm0 0M675.36 266.873h8.969L690 283.779c.175.531.328 1.078.453 1.64.125.556.226 1.126.312 1.72.094.586.164 1.199.219 1.843h.172c.101-.968.25-1.867.437-2.703.188-.844.426-1.676.72-2.5l5.546-16.906h8.781l-12.703 33.875c-.773 2.07-1.777 3.8-3.016 5.187-1.23 1.395-2.648 2.442-4.25 3.141-1.593.695-3.351 1.047-5.265 1.047a16.53 16.53 0 0 1-2.422-.156c-.68-.094-1.262-.2-1.75-.313v-6.5c.375.094.848.176 1.422.25.57.07 1.176.11 1.812.11 1.145 0 2.13-.246 2.953-.735a6.376 6.376 0 0 0 2.063-1.937 10.9 10.9 0 0 0 1.312-2.672l.485-1.485zm0 0M738.415 257.639c5.062 0 8.754 1.09 11.078 3.265 2.332 2.18 3.5 5.172 3.5 8.985a15.63 15.63 0 0 1-.781 4.937 10.778 10.778 0 0 1-2.532 4.172c-1.18 1.21-2.742 2.168-4.687 2.875-1.95.71-4.355 1.062-7.219 1.062h-3.578v13.97h-8.328v-39.266zm-.438 6.828h-3.78v11.656h2.733c1.563 0 2.915-.203 4.063-.61 1.145-.413 2.031-1.062 2.656-1.937.625-.883.938-2.016.938-3.39 0-1.938-.54-3.376-1.61-4.313-1.074-.938-2.742-1.406-5-1.406zm0 0M787.042 281.842c0 2.5-.34 4.718-1.015 6.656-.668 1.937-1.641 3.574-2.922 4.906-1.274 1.336-2.809 2.34-4.61 3.016-1.804.676-3.828 1.015-6.078 1.015-2.117 0-4.058-.34-5.828-1.015a12.657 12.657 0 0 1-4.594-3.016c-1.293-1.332-2.293-2.969-3-4.906-.71-1.938-1.062-4.156-1.062-6.656 0-3.332.586-6.149 1.766-8.453 1.187-2.313 2.867-4.067 5.046-5.266 2.188-1.207 4.797-1.813 7.829-1.813 2.812 0 5.3.606 7.468 1.813 2.176 1.2 3.883 2.953 5.125 5.266 1.25 2.304 1.875 5.12 1.875 8.453zm-20.75 0c0 1.968.211 3.625.64 4.968.427 1.344 1.095 2.356 2 3.032.915.68 2.11 1.015 3.579 1.015 1.457 0 2.633-.336 3.531-1.015.907-.676 1.567-1.688 1.985-3.032.425-1.343.64-3 .64-4.968 0-1.989-.215-3.64-.64-4.953-.418-1.32-1.086-2.313-2-2.97-.907-.663-2.094-1-3.563-1-2.168 0-3.742.747-4.719 2.235-.968 1.48-1.453 3.711-1.453 6.688zm0 0M801.999 266.873v30.031h-8.188v-30.031zm-4.078-11.75c1.218 0 2.265.281 3.14.844.875.562 1.313 1.617 1.313 3.156 0 1.523-.438 2.574-1.313 3.156-.875.586-1.922.875-3.14.875-1.242 0-2.293-.289-3.157-.875-.867-.582-1.296-1.633-1.296-3.156 0-1.54.43-2.594 1.296-3.156.864-.563 1.915-.844 3.157-.844zm0 0M827.642 266.31c3.207 0 5.785.875 7.734 2.625 1.957 1.743 2.938 4.54 2.938 8.391v19.578h-8.188v-17.531c0-2.156-.39-3.773-1.172-4.86-.781-1.093-2.008-1.64-3.672-1.64-2.5 0-4.21.852-5.125 2.547-.918 1.7-1.375 4.152-1.375 7.36v14.124h-8.187v-30.031h6.25l1.11 3.844h.452a8.28 8.28 0 0 1 2.407-2.516A10.32 10.32 0 0 1 824 266.78a14.12 14.12 0 0 1 3.64-.469zm0 0M859.396 290.92c.883 0 1.754-.086 2.61-.266.85-.187 1.702-.41 2.546-.672v6.094c-.887.399-1.98.719-3.281.969-1.293.258-2.711.39-4.25.39-1.793 0-3.402-.289-4.828-.859-1.418-.582-2.531-1.594-3.344-3.031-.812-1.445-1.219-3.461-1.219-6.047v-14.469h-3.922v-3.469l4.516-2.734 2.36-6.344h5.234v6.391h8.406v6.156h-8.406v14.469c0 1.148.32 2.008.969 2.578.656.563 1.523.844 2.609.844zm0 0M891.566 287.982c0 2.043-.48 3.766-1.438 5.172-.96 1.406-2.39 2.477-4.297 3.203-1.898.72-4.258 1.078-7.078 1.078-2.094 0-3.89-.136-5.39-.406a21.489 21.489 0 0 1-4.516-1.328v-6.766a32.092 32.092 0 0 0 5.234 1.813c1.875.469 3.52.703 4.938.703 1.594 0 2.734-.234 3.422-.703.687-.477 1.03-1.102 1.03-1.875 0-.5-.14-.945-.421-1.344-.273-.406-.867-.863-1.781-1.375-.906-.508-2.34-1.176-4.297-2-1.875-.789-3.418-1.586-4.625-2.39-1.211-.813-2.106-1.766-2.688-2.86-.586-1.101-.875-2.504-.875-4.203 0-2.781 1.079-4.875 3.235-6.281 2.156-1.406 5.047-2.11 8.672-2.11 1.851 0 3.625.196 5.312.579 1.695.375 3.442.976 5.235 1.796l-2.47 5.907a41.971 41.971 0 0 0-4.202-1.578 13.282 13.282 0 0 0-4.016-.625c-1.2 0-2.105.164-2.719.484-.605.324-.906.812-.906 1.469 0 .492.156.922.469 1.297.312.375.922.793 1.828 1.25.906.449 2.234 1.03 3.984 1.75 1.696.699 3.172 1.43 4.422 2.187 1.258.762 2.227 1.703 2.906 2.828.688 1.117 1.032 2.559 1.032 4.328zm0 0" fill="#0070b6"/></svg>