<svg xmlns="http://www.w3.org/2000/svg" width="2000" viewBox="0 0 1500 450" height="600" version="1"><defs><clipPath id="a"><path d="M308.738 135h165.75v167h-165.75zm0 0"/></clipPath></defs><path fill="#fff" d="M-150-45h1800v540H-150z"/><path fill="#fff" d="M-150-45h1800v540H-150z"/><path fill="#fff" d="M-150-45h1800v540H-150z"/><g clip-path="url(#a)"><path fill="#ffcb4c" d="M474.488 218.758c0 1.351-.031 2.707-.101 4.062a82.688 82.688 0 0 1-.297 4.051 82.434 82.434 0 0 1-.5 4.035 81.65 81.65 0 0 1-.695 4.004 77.353 77.353 0 0 1-.891 3.965 80.843 80.843 0 0 1-1.086 3.918 78.067 78.067 0 0 1-1.273 3.855 80.87 80.87 0 0 1-1.465 3.793 78.89 78.89 0 0 1-1.649 3.715 76.844 76.844 0 0 1-1.828 3.63 87.548 87.548 0 0 1-2.004 3.538 87.641 87.641 0 0 1-2.18 3.434 78.138 78.138 0 0 1-2.34 3.32 79.236 79.236 0 0 1-2.503 3.203 83.043 83.043 0 0 1-5.46 6.023 83.104 83.104 0 0 1-12.56 10.298 84.786 84.786 0 0 1-6.976 4.175 78.91 78.91 0 0 1-3.633 1.828 85.328 85.328 0 0 1-3.719 1.649 89.269 89.269 0 0 1-3.793 1.46 79.737 79.737 0 0 1-3.863 1.274c-1.3.395-2.606.758-3.922 1.086a85.638 85.638 0 0 1-3.969.89 82.411 82.411 0 0 1-12.102 1.488c-1.355.071-2.71.103-4.066.103-1.355 0-2.71-.032-4.066-.102a82.492 82.492 0 0 1-16.07-2.379 80.991 80.991 0 0 1-3.922-1.086 79.593 79.593 0 0 1-3.86-1.273 87.44 87.44 0 0 1-3.797-1.461 85.327 85.327 0 0 1-3.718-1.649 78.91 78.91 0 0 1-3.633-1.828 84.786 84.786 0 0 1-6.977-4.176 82.936 82.936 0 0 1-12.559-10.297 86.738 86.738 0 0 1-2.804-2.945 82.903 82.903 0 0 1-7.5-9.602 87.641 87.641 0 0 1-2.18-3.433 87.546 87.546 0 0 1-2.004-3.539 83.141 83.141 0 0 1-4.941-11.137 78.067 78.067 0 0 1-1.273-3.855 80.841 80.841 0 0 1-1.086-3.918 77.354 77.354 0 0 1-.891-3.965 81.65 81.65 0 0 1-.695-4.004c-.2-1.34-.367-2.687-.5-4.035-.133-1.348-.23-2.7-.297-4.05a83.056 83.056 0 0 1-.102-4.063c0-1.356.035-2.711.102-4.067.066-1.351.164-2.703.297-4.05.133-1.348.3-2.696.5-4.036a82.466 82.466 0 0 1 2.672-11.882 80.87 80.87 0 0 1 2.738-7.652 83.141 83.141 0 0 1 5.48-10.883c.7-1.16 1.426-2.305 2.18-3.434a82.903 82.903 0 0 1 7.5-9.602 86.738 86.738 0 0 1 2.805-2.945 82.97 82.97 0 0 1 12.559-10.297 84.786 84.786 0 0 1 6.976-4.176 80.799 80.799 0 0 1 7.352-3.473 82.723 82.723 0 0 1 27.648-6.202 83.093 83.093 0 0 1 4.066-.102c1.356 0 2.711.035 4.067.102a83.003 83.003 0 0 1 8.093.793c1.344.199 2.68.433 4.008.695 1.332.266 2.653.562 3.969.89 1.316.333 2.621.692 3.922 1.086 1.297.391 2.586.817 3.863 1.274a84.353 84.353 0 0 1 7.512 3.11 78.91 78.91 0 0 1 3.633 1.827 84.786 84.786 0 0 1 6.977 4.176 83.148 83.148 0 0 1 12.558 10.297 83.043 83.043 0 0 1 7.965 9.227 78.138 78.138 0 0 1 2.34 3.32 87.641 87.641 0 0 1 2.18 3.434 87.548 87.548 0 0 1 2.003 3.539 78.776 78.776 0 0 1 1.828 3.628 78.89 78.89 0 0 1 1.649 3.715 80.87 80.87 0 0 1 2.738 7.653 79.477 79.477 0 0 1 1.086 3.914c.332 1.316.629 2.636.89 3.965a82.434 82.434 0 0 1 1.195 8.04c.134 1.346.231 2.698.298 4.05.07 1.355.101 2.71.101 4.066zm0 0"/></g><path fill="#65471b" d="M374.668 238.324a4.42 4.42 0 0 1-1.52-2.258c-.656-2.242.633-4.472 2.875-4.972 22.075-4.973 36.938 6.636 37.567 7.133 1.87 1.492 2.238 4.117.844 5.87-1.395 1.743-4.036 1.954-5.903.473-.539-.41-12.3-9.367-30.14-5.347-1.332.297-2.7-.078-3.723-.899zm0 0M378.18 190.293a15.699 15.699 0 0 1-.79 4.95 14.67 14.67 0 0 1-.956 2.237 12.88 12.88 0 0 1-1.29 1.961 11.119 11.119 0 0 1-1.57 1.606 9.814 9.814 0 0 1-1.793 1.195 8.56 8.56 0 0 1-3.96.988 8.442 8.442 0 0 1-2.024-.25 8.63 8.63 0 0 1-1.942-.738 9.814 9.814 0 0 1-1.793-1.195 11.118 11.118 0 0 1-1.57-1.606c-.48-.601-.91-1.254-1.285-1.96-.379-.708-.7-1.454-.96-2.239a15.255 15.255 0 0 1-.587-2.426 16.008 16.008 0 0 1 0-5.046c.13-.833.328-1.641.586-2.426.262-.785.582-1.531.961-2.239.375-.707.805-1.359 1.285-1.96a11.149 11.149 0 0 1 1.57-1.61 10.232 10.232 0 0 1 1.793-1.195 8.807 8.807 0 0 1 1.942-.735 8.249 8.249 0 0 1 2.023-.25c.68 0 1.352.083 2.02.25.668.165 1.316.41 1.941.735.63.328 1.227.726 1.793 1.195.567.473 1.09 1.008 1.57 1.61.481.601.91 1.253 1.29 1.96.375.708.695 1.454.957 2.239a15.699 15.699 0 0 1 .789 4.949zm0 0M433.05 195.465c0 .851-.066 1.691-.198 2.523-.133.832-.329 1.64-.59 2.426a13.93 13.93 0 0 1-.957 2.238 12.88 12.88 0 0 1-1.29 1.961 11.149 11.149 0 0 1-1.57 1.61 10.06 10.06 0 0 1-1.789 1.195 8.838 8.838 0 0 1-1.945.734c-.664.168-1.34.25-2.02.25-.68 0-1.355-.082-2.02-.25a8.838 8.838 0 0 1-1.944-.734 10.06 10.06 0 0 1-1.79-1.195 11.149 11.149 0 0 1-1.57-1.61 12.88 12.88 0 0 1-1.289-1.96 14.29 14.29 0 0 1-.957-2.239 15.263 15.263 0 0 1-.59-2.426 16.008 16.008 0 0 1 0-5.047c.133-.832.328-1.64.59-2.425a14.29 14.29 0 0 1 .957-2.239 12.88 12.88 0 0 1 1.29-1.96 11.118 11.118 0 0 1 1.57-1.606 9.655 9.655 0 0 1 1.789-1.195 8.66 8.66 0 0 1 1.945-.739 8.41 8.41 0 0 1 2.02-.25c.68 0 1.355.086 2.019.25a8.66 8.66 0 0 1 1.945.739 9.655 9.655 0 0 1 1.79 1.195c.566.469 1.09 1.008 1.57 1.605.48.602.91 1.254 1.289 1.961.379.707.699 1.453.957 2.239.261.785.457 1.593.59 2.425.132.832.199 1.676.199 2.524zm0 0"/><path fill="#f19020" d="M388.082 307.063s6.168-2 6.969-6.586c.844-4.73-3.043-5.684-3.043-5.684s5.074-1.012 5.715-6.7c.597-5.363-4.2-6.64-4.2-6.64s4.73-1.945 4.954-7.496c.187-4.668-4.852-6.953-4.852-6.953s24.563-5.95 27.086-6.531c2.516-.586 6.437-2.996 5.21-8.25-1.21-5.262-5.866-5.446-8.269-4.887-2.41.559-32.879 7.629-43.39 10.074l-7.012 1.625c-2.633.617-3.828-.535-1.973-2.492 2.477-2.613 4.063-5.5 4.614-10.293.578-5.04-1.133-11.266-2.11-13.68-1.824-4.488-4.902-8.03-8.453-9.25-5.543-1.898-9.484 1.563-7.52 7.602 2.946 9.031 1.016 16.437-4.058 20.91-11.941 10.504-17.492 17.996-13.797 33.961 4.035 17.414 21.336 28.621 38.766 24.586zm0 0"/><path fill="#65471b" d="M349.18 166.8a4.508 4.508 0 0 1-1.907-1.94c-1.05-2.087-.191-4.516 1.918-5.419 20.797-8.918 37.532-.207 38.235.168 2.11 1.125 2.965 3.637 1.906 5.621-1.055 1.973-3.61 2.657-5.719 1.547-.597-.304-13.804-6.972-30.605.23-1.254.532-2.668.415-3.828-.206zm59.16 18.266a4.495 4.495 0 0 1-1.766-2.066c-.91-2.152.113-4.512 2.281-5.277 21.36-7.48 37.465 2.336 38.137 2.761 2.024 1.266 2.707 3.832 1.524 5.739-1.18 1.898-3.786 2.41-5.809 1.156-.582-.348-13.293-7.895-30.55-1.844-1.298.442-2.696.223-3.817-.469zm0 0"/><path d="M526.167 176.955h10.313c4.695 0 8.101.668 10.218 2 2.125 1.336 3.188 3.46 3.188 6.375 0 1.98-.465 3.605-1.39 4.875-.93 1.273-2.165 2.039-3.704 2.297v.218c2.094.469 3.602 1.352 4.531 2.64.938 1.282 1.407 2.985 1.407 5.11 0 3.024-1.094 5.383-3.282 7.078-2.18 1.688-5.14 2.532-8.89 2.532h-12.39zm7.016 13.109h4.078c1.906 0 3.285-.289 4.14-.875.852-.594 1.282-1.566 1.282-2.922 0-1.27-.465-2.18-1.39-2.734-.93-.551-2.4-.828-4.407-.828h-3.703zm0 5.578v8.64h4.578c1.937 0 3.363-.366 4.281-1.109.926-.738 1.39-1.875 1.39-3.406 0-2.75-1.964-4.125-5.89-4.125zm0 0M567.283 189.189c-1.46 0-2.605.465-3.437 1.39-.836.93-1.309 2.247-1.422 3.954h9.688c-.032-1.707-.48-3.024-1.344-3.953-.856-.926-2.016-1.391-3.485-1.391zm.985 21.344c-4.086 0-7.277-1.125-9.578-3.375-2.293-2.25-3.438-5.438-3.438-9.563 0-4.25 1.063-7.531 3.188-9.843 2.125-2.32 5.062-3.485 8.812-3.485 3.57 0 6.352 1.024 8.344 3.063 2 2.043 3 4.859 3 8.453v3.36h-16.328c.07 1.96.648 3.491 1.734 4.593 1.094 1.105 2.617 1.656 4.578 1.656 1.532 0 2.973-.156 4.328-.469 1.364-.32 2.786-.832 4.266-1.53v5.343c-1.21.605-2.5 1.055-3.875 1.344-1.375.3-3.055.453-5.031.453zm0 0M598.217 189.939h-5.985v20.14h-6.906v-20.14h-3.813v-3.328l3.813-1.86v-1.859c0-2.883.707-4.988 2.125-6.312 1.426-1.332 3.703-2 6.828-2 2.383 0 4.504.355 6.36 1.062l-1.766 5.078c-1.387-.445-2.668-.672-3.844-.672-.98 0-1.695.293-2.14.875-.438.586-.657 1.329-.657 2.235v1.594h5.985zm0 0M607.685 197.36c0 2.513.41 4.415 1.235 5.704.832 1.281 2.175 1.922 4.03 1.922 1.845 0 3.165-.633 3.97-1.906.812-1.282 1.218-3.188 1.218-5.72 0-2.5-.414-4.374-1.234-5.624-.812-1.258-2.148-1.89-4-1.89-1.844 0-3.18.624-4 1.874-.812 1.242-1.219 3.121-1.219 5.64zm17.516 0c0 4.126-1.09 7.356-3.266 9.688-2.168 2.325-5.195 3.485-9.078 3.485-2.43 0-4.574-.531-6.437-1.594-1.856-1.062-3.282-2.586-4.282-4.578-1-2-1.5-4.332-1.5-7 0-4.133 1.079-7.348 3.235-9.64 2.164-2.301 5.207-3.454 9.125-3.454 2.426 0 4.566.531 6.422 1.594 1.863 1.055 3.289 2.57 4.28 4.547 1 1.98 1.5 4.297 1.5 6.953zm0 0M645.058 184.267c.937 0 1.71.07 2.328.203l-.516 6.485c-.562-.145-1.246-.22-2.047-.22-2.199 0-3.918.571-5.156 1.704-1.23 1.125-1.844 2.711-1.844 4.75v12.89h-6.906v-25.327h5.234l1.016 4.25h.344a9.466 9.466 0 0 1 3.172-3.422c1.343-.875 2.8-1.313 4.375-1.313zm0 0M662.474 189.189c-1.46 0-2.605.465-3.437 1.39-.836.93-1.309 2.247-1.422 3.954h9.687c-.03-1.707-.48-3.024-1.343-3.953-.856-.926-2.016-1.391-3.485-1.391zm.985 21.344c-4.086 0-7.278-1.125-9.578-3.375-2.293-2.25-3.438-5.438-3.438-9.563 0-4.25 1.063-7.531 3.188-9.843 2.125-2.32 5.062-3.485 8.812-3.485 3.57 0 6.352 1.024 8.344 3.063 2 2.043 3 4.859 3 8.453v3.36h-16.328c.07 1.96.648 3.491 1.734 4.593 1.094 1.105 2.617 1.656 4.578 1.656 1.531 0 2.973-.156 4.328-.469 1.364-.32 2.785-.832 4.266-1.53v5.343c-1.211.605-2.5 1.055-3.875 1.344-1.375.3-3.055.453-5.031.453zm0 0M712.29 210.08l-1.953-8.86-2.625-11.187h-.156l-4.625 20.047h-7.438l-7.203-25.328h6.89l2.923 11.218c.468 2 .941 4.774 1.422 8.313h.14c.063-1.145.328-2.969.797-5.469l.36-1.922 3.124-12.14h7.61l2.969 12.14c.062.336.156.828.28 1.485.134.648.259 1.335.376 2.062.125.73.234 1.45.328 2.156.102.7.16 1.262.172 1.688h.14c.133-1.094.375-2.586.72-4.485.35-1.894.6-3.171.75-3.828l3.046-11.218h6.766l-7.297 25.328zm0 0M741.668 189.189c-1.461 0-2.606.465-3.438 1.39-.836.93-1.308 2.247-1.421 3.954h9.687c-.031-1.707-.48-3.024-1.344-3.953-.855-.926-2.015-1.391-3.484-1.391zm.984 21.344c-4.086 0-7.277-1.125-9.578-3.375-2.293-2.25-3.437-5.438-3.437-9.563 0-4.25 1.062-7.531 3.187-9.843 2.125-2.32 5.063-3.485 8.813-3.485 3.57 0 6.351 1.024 8.343 3.063 2 2.043 3 4.859 3 8.453v3.36h-16.328c.07 1.96.649 3.491 1.735 4.593 1.093 1.105 2.617 1.656 4.578 1.656 1.531 0 2.972-.156 4.328-.469 1.363-.32 2.785-.832 4.266-1.53v5.343c-1.211.605-2.5 1.055-3.875 1.344-1.375.3-3.055.453-5.032.453zm0 0M784.75 184.267c2.988 0 5.328 1.168 7.015 3.5 1.695 2.336 2.547 5.531 2.547 9.594 0 4.187-.875 7.434-2.625 9.734-1.742 2.293-4.117 3.438-7.125 3.438-2.969 0-5.305-1.078-7-3.235h-.469l-1.156 2.782h-5.281v-35.266h6.906v8.203c0 1.055-.09 2.727-.266 5.016h.266c1.625-2.508 4.02-3.766 7.187-3.766zm-2.22 5.531c-1.71 0-2.96.528-3.75 1.579-.78 1.054-1.187 2.789-1.218 5.203v.75c0 2.718.406 4.668 1.219 5.843.812 1.18 2.093 1.766 3.843 1.766 1.414 0 2.54-.648 3.375-1.953.844-1.313 1.266-3.211 1.266-5.703 0-2.5-.422-4.367-1.266-5.61-.843-1.25-2-1.875-3.468-1.875zm0 0M810.506 189.189c-1.46 0-2.605.465-3.437 1.39-.836.93-1.309 2.247-1.422 3.954h9.687c-.03-1.707-.48-3.024-1.343-3.953-.856-.926-2.016-1.391-3.485-1.391zm.985 21.344c-4.086 0-7.278-1.125-9.579-3.375-2.292-2.25-3.437-5.438-3.437-9.563 0-4.25 1.062-7.531 3.187-9.843 2.125-2.32 5.063-3.485 8.813-3.485 3.57 0 6.352 1.024 8.344 3.063 2 2.043 3 4.859 3 8.453v3.36H805.49c.07 1.96.648 3.491 1.734 4.593 1.094 1.105 2.617 1.656 4.578 1.656 1.531 0 2.973-.156 4.328-.469 1.364-.32 2.785-.832 4.266-1.53v5.343c-1.211.605-2.5 1.055-3.875 1.344-1.375.3-3.055.453-5.031.453zm0 0M849.486 184.752v3.5l-3.969 1.03c.727 1.126 1.094 2.391 1.094 3.798 0 2.718-.949 4.84-2.844 6.359-1.898 1.523-4.527 2.281-7.89 2.281l-1.25-.062-1.031-.125c-.711.543-1.063 1.148-1.063 1.812 0 1 1.27 1.5 3.813 1.5h4.296c2.782 0 4.899.602 6.36 1.797 1.457 1.188 2.187 2.938 2.187 5.25 0 2.957-1.234 5.25-3.703 6.875-2.469 1.633-6.015 2.453-10.64 2.453-3.532 0-6.23-.617-8.094-1.843-1.867-1.23-2.797-2.954-2.797-5.172 0-1.532.473-2.813 1.422-3.844.945-1.02 2.344-1.75 4.187-2.188-.71-.3-1.328-.796-1.859-1.484-.523-.687-.781-1.414-.781-2.187 0-.97.273-1.77.828-2.407.562-.644 1.375-1.273 2.437-1.89-1.336-.57-2.39-1.493-3.172-2.766-.773-1.27-1.156-2.766-1.156-4.484 0-2.77.895-4.91 2.688-6.422 1.8-1.508 4.367-2.266 7.703-2.266.707 0 1.547.07 2.515.203.977.125 1.602.219 1.875.282zm-19.547 28.906c0 .945.453 1.691 1.36 2.234.914.55 2.195.828 3.843.828 2.477 0 4.422-.343 5.829-1.031 1.406-.68 2.109-1.605 2.109-2.781 0-.95-.418-1.606-1.25-1.969-.836-.367-2.121-.547-3.86-.547h-3.578c-1.273 0-2.335.297-3.187.89-.844.602-1.266 1.395-1.266 2.376zm2.516-20.625c0 1.375.312 2.465.937 3.265.625.805 1.579 1.204 2.86 1.204 1.3 0 2.254-.399 2.86-1.204.6-.8.905-1.89.905-3.265 0-3.04-1.257-4.563-3.765-4.563-2.531 0-3.797 1.524-3.797 4.563zm0 0M853.359 178.205c0-2.258 1.254-3.391 3.766-3.391 2.507 0 3.765 1.133 3.765 3.39 0 1.075-.32 1.907-.953 2.5-.625.594-1.562.891-2.812.891-2.512 0-3.766-1.129-3.766-3.39zm7.203 31.875h-6.906v-25.328h6.906zm0 0M891.208 210.08h-6.921v-14.797c0-1.82-.325-3.192-.97-4.11-.648-.914-1.683-1.375-3.109-1.375-1.93 0-3.324.649-4.187 1.938-.867 1.293-1.297 3.434-1.297 6.422v11.922h-6.906v-25.328h5.281l.922 3.234h.39c.77-1.219 1.833-2.14 3.188-2.766 1.352-.633 2.89-.953 4.61-.953 2.945 0 5.18.797 6.703 2.39 1.53 1.595 2.296 3.9 2.296 6.907zm0 0M905.098 205.205c-.793 3.054-2.125 6.672-4 10.859h-4.984c.988-4.023 1.754-7.812 2.297-11.375h6.343zm0 0M930.737 210.08h-6.906v-35.266h6.906zm0 0M948.477 189.189c-1.46 0-2.605.465-3.437 1.39-.836.93-1.309 2.247-1.422 3.954h9.688c-.032-1.707-.48-3.024-1.344-3.953-.856-.926-2.016-1.391-3.485-1.391zm.985 21.344c-4.086 0-7.278-1.125-9.578-3.375-2.293-2.25-3.438-5.438-3.438-9.563 0-4.25 1.063-7.531 3.188-9.843 2.125-2.32 5.062-3.485 8.812-3.485 3.57 0 6.352 1.024 8.344 3.063 2 2.043 3 4.859 3 8.453v3.36h-16.328c.07 1.96.648 3.491 1.734 4.593 1.094 1.105 2.617 1.656 4.578 1.656 1.532 0 2.973-.156 4.328-.469 1.364-.32 2.786-.832 4.266-1.53v5.343c-1.21.605-2.5 1.055-3.875 1.344-1.375.3-3.055.453-5.031.453zm0 0M976.082 205.033c1.207 0 2.66-.266 4.36-.797v5.14c-1.73.77-3.852 1.157-6.36 1.157-2.761 0-4.773-.696-6.03-2.094-1.263-1.394-1.891-3.492-1.891-6.297V189.94h-3.313v-2.922l3.813-2.312 1.984-5.344h4.422v5.39h7.094v5.188h-7.094v12.203c0 .992.273 1.719.828 2.188.55.468 1.281.703 2.187.703zm0 0M991.258 176.955l-.922 11.968h-4.469l-.922-11.968zm0 0M1015.576 202.564c0 2.594-.903 4.574-2.704 5.938-1.804 1.355-4.507 2.03-8.109 2.03-1.836 0-3.402-.124-4.703-.374a18.02 18.02 0 0 1-3.656-1.094v-5.719c1.289.606 2.738 1.117 4.343 1.532 1.602.406 3.02.609 4.25.609 2.508 0 3.766-.727 3.766-2.188 0-.539-.168-.976-.5-1.312-.336-.344-.914-.727-1.734-1.156-.813-.438-1.899-.942-3.25-1.516-1.95-.812-3.383-1.566-4.297-2.266-.918-.695-1.586-1.492-2-2.39-.418-.895-.625-2-.625-3.313 0-2.25.867-3.988 2.61-5.218 1.75-1.239 4.226-1.86 7.437-1.86 3.05 0 6.02.668 8.906 2l-2.094 4.985a37.677 37.677 0 0 0-3.547-1.329 11.077 11.077 0 0 0-3.375-.53c-2.043 0-3.062.554-3.062 1.655 0 .618.328 1.153.984 1.61.656.449 2.094 1.12 4.313 2.015 1.976.805 3.426 1.555 4.343 2.25.926.688 1.61 1.485 2.047 2.391.438.906.657 1.992.657 3.25zm0 0M1047.166 184.267c.937 0 1.71.07 2.328.203l-.516 6.485c-.562-.145-1.246-.22-2.046-.22-2.2 0-3.918.571-5.157 1.704-1.23 1.125-1.843 2.711-1.843 4.75v12.89h-6.907v-25.327h5.235l1.015 4.25h.344a9.466 9.466 0 0 1 3.172-3.422c1.344-.875 2.8-1.313 4.375-1.313zm0 0M1064.583 189.189c-1.461 0-2.606.465-3.438 1.39-.836.93-1.308 2.247-1.422 3.954h9.688c-.031-1.707-.48-3.024-1.344-3.953-.855-.926-2.016-1.391-3.484-1.391zm.984 21.344c-4.086 0-7.277-1.125-9.578-3.375-2.293-2.25-3.438-5.438-3.438-9.563 0-4.25 1.063-7.531 3.188-9.843 2.125-2.32 5.062-3.485 8.812-3.485 3.57 0 6.352 1.024 8.344 3.063 2 2.043 3 4.859 3 8.453v3.36h-16.328c.07 1.96.649 3.491 1.734 4.593 1.094 1.105 2.618 1.656 4.579 1.656 1.53 0 2.972-.156 4.328-.469 1.363-.32 2.785-.832 4.265-1.53v5.343c-1.21.605-2.5 1.055-3.875 1.344-1.375.3-3.054.453-5.03.453zm0 0M1095.516 189.939h-5.985v20.14h-6.906v-20.14h-3.812v-3.328l3.812-1.86v-1.859c0-2.883.707-4.988 2.125-6.312 1.426-1.332 3.703-2 6.828-2 2.383 0 4.504.355 6.36 1.062l-1.766 5.078c-1.387-.445-2.668-.672-3.844-.672-.98 0-1.695.293-2.14.875-.438.586-.657 1.329-.657 2.235v1.594h5.985zm0 0M1106.39 210.08h-6.905v-35.266h6.906zm0 0M1124.13 189.189c-1.46 0-2.605.465-3.437 1.39-.836.93-1.308 2.247-1.422 3.954h9.688c-.031-1.707-.48-3.024-1.344-3.953-.855-.926-2.015-1.391-3.484-1.391zm.985 21.344c-4.086 0-7.277-1.125-9.578-3.375-2.293-2.25-3.437-5.438-3.437-9.563 0-4.25 1.062-7.531 3.187-9.843 2.125-2.32 5.063-3.485 8.813-3.485 3.57 0 6.351 1.024 8.343 3.063 2 2.043 3 4.859 3 8.453v3.36h-16.328c.07 1.96.649 3.491 1.735 4.593 1.093 1.105 2.617 1.656 4.578 1.656 1.531 0 2.972-.156 4.328-.469 1.363-.32 2.785-.832 4.265-1.53v5.343c-1.21.605-2.5 1.055-3.875 1.344-1.375.3-3.054.453-5.03.453zm0 0M1151.345 210.533c-7.886 0-11.828-4.328-11.828-12.985 0-4.3 1.07-7.586 3.219-9.859 2.144-2.281 5.223-3.422 9.234-3.422 2.926 0 5.551.574 7.875 1.719l-2.031 5.36a36.523 36.523 0 0 0-3.047-1.079 9.7 9.7 0 0 0-2.797-.422c-3.605 0-5.406 2.555-5.406 7.657 0 4.96 1.8 7.437 5.406 7.437 1.32 0 2.551-.176 3.688-.531 1.133-.352 2.265-.91 3.39-1.672v5.922c-1.117.71-2.246 1.199-3.39 1.469-1.137.27-2.574.406-4.313.406zm0 0M1175.596 205.033c1.207 0 2.66-.266 4.36-.797v5.14c-1.731.77-3.852 1.157-6.36 1.157-2.762 0-4.774-.696-6.031-2.094-1.262-1.394-1.891-3.492-1.891-6.297V189.94h-3.312v-2.922l3.812-2.312 1.984-5.344h4.422v5.39h7.094v5.188h-7.094v12.203c0 .992.274 1.719.828 2.188.551.468 1.282.703 2.188.703zm0 0M1190.865 199.095h-5.531l-1.157-22.14h7.844zm-6.766 7.75c0-1.27.336-2.226 1.016-2.875.676-.656 1.664-.984 2.969-.984 1.25 0 2.218.336 2.906 1 .687.668 1.031 1.621 1.031 2.86 0 1.187-.351 2.124-1.047 2.812-.687.687-1.652 1.031-2.89 1.031-1.274 0-2.258-.336-2.954-1-.687-.676-1.03-1.625-1.03-2.844zm0 0M536.745 274.734h-3.844v-29.703h-10.5v-3.422h24.844v3.422h-10.5zm0 0M547.715 249.906h4.031l5.438 14.157c1.195 3.23 1.937 5.562 2.218 7h.188c.195-.77.61-2.086 1.234-3.954.625-1.863 2.676-7.597 6.156-17.203h4.032l-10.672 28.266c-1.063 2.8-2.305 4.785-3.719 5.953-1.406 1.164-3.137 1.75-5.187 1.75-1.149 0-2.282-.125-3.407-.375v-3.016c.832.176 1.766.266 2.797.266 2.582 0 4.422-1.45 5.516-4.344l1.39-3.531zm0 0M586.599 275.188c-1.617 0-3.094-.297-4.437-.891-1.336-.602-2.454-1.52-3.36-2.75h-.265c.175 1.45.265 2.82.265 4.11v10.218h-3.765v-35.969h3.062l.516 3.39h.187c.969-1.35 2.094-2.331 3.375-2.937 1.281-.601 2.754-.906 4.422-.906 3.29 0 5.832 1.125 7.625 3.375 1.79 2.25 2.688 5.406 2.688 9.469 0 4.074-.915 7.242-2.735 9.5-1.824 2.262-4.351 3.39-7.578 3.39zm-.547-22.547c-2.543 0-4.383.703-5.515 2.109-1.125 1.406-1.704 3.64-1.735 6.703v.844c0 3.492.578 5.984 1.735 7.484 1.164 1.5 3.035 2.25 5.609 2.25 2.144 0 3.82-.863 5.031-2.593 1.219-1.739 1.828-4.133 1.828-7.188 0-3.094-.61-5.469-1.828-7.125-1.21-1.656-2.918-2.484-5.125-2.484zm0 0M613.974 275.188c-3.68 0-6.578-1.114-8.703-3.344-2.118-2.239-3.172-5.348-3.172-9.328 0-4 .984-7.176 2.953-9.532 1.969-2.351 4.613-3.53 7.937-3.53 3.114 0 5.578 1.026 7.39 3.077 1.813 2.043 2.72 4.742 2.72 8.094V263h-17.11c.07 2.918.805 5.133 2.203 6.64 1.407 1.512 3.375 2.266 5.907 2.266 2.675 0 5.32-.562 7.937-1.687v3.36c-1.336.573-2.594.984-3.781 1.234-1.18.25-2.606.375-4.281.375zm-1.032-22.594c-1.992 0-3.578.652-4.765 1.953-1.188 1.305-1.887 3.101-2.094 5.39h12.984c0-2.374-.53-4.19-1.593-5.453-1.055-1.257-2.563-1.89-4.532-1.89zm0 0M645.33 274.734h-3.766v-24.828h3.765zm-4.079-31.562c0-.863.207-1.492.625-1.89.426-.407.957-.61 1.594-.61.601 0 1.125.21 1.562.625.438.406.657 1.031.657 1.875 0 .844-.22 1.476-.657 1.89-.437.418-.96.626-1.562.626-.637 0-1.168-.208-1.594-.625-.418-.415-.625-1.047-.625-1.891zm0 0M670.301 274.734v-16.062c0-2.031-.465-3.54-1.39-4.531-.919-1-2.36-1.5-4.329-1.5-2.593 0-4.496.703-5.703 2.109-1.21 1.406-1.812 3.727-1.812 6.953v13.031H653.3v-24.828h3.063l.609 3.39h.187c.77-1.218 1.848-2.16 3.235-2.827 1.394-.676 2.941-1.016 4.64-1.016 3 0 5.254.727 6.766 2.172 1.508 1.438 2.266 3.742 2.266 6.906v16.203zm0 0M689.9 249.906h4.032l5.437 14.157c1.196 3.23 1.938 5.562 2.22 7h.187c.195-.77.609-2.086 1.234-3.954.625-1.863 2.676-7.597 6.156-17.203h4.032l-10.672 28.266c-1.063 2.8-2.305 4.785-3.72 5.953-1.405 1.164-3.136 1.75-5.187 1.75-1.148 0-2.28-.125-3.406-.375v-3.016c.832.176 1.766.266 2.797.266 2.582 0 4.422-1.45 5.516-4.344l1.39-3.531zm0 0M738.66 262.297c0 4.043-1.024 7.203-3.063 9.484-2.03 2.274-4.851 3.407-8.453 3.407-2.219 0-4.187-.52-5.906-1.563-1.719-1.039-3.047-2.535-3.984-4.484-.938-1.946-1.407-4.227-1.407-6.844 0-4.05 1.008-7.203 3.032-9.453 2.02-2.258 4.832-3.39 8.437-3.39 3.469 0 6.223 1.155 8.266 3.468 2.05 2.305 3.078 5.43 3.078 9.375zm-18.922 0c0 3.168.633 5.586 1.906 7.25 1.27 1.656 3.133 2.484 5.594 2.484 2.469 0 4.336-.82 5.61-2.468 1.28-1.657 1.921-4.079 1.921-7.266 0-3.156-.64-5.55-1.922-7.188-1.273-1.644-3.156-2.468-5.656-2.468-2.46 0-4.32.808-5.578 2.422-1.25 1.617-1.875 4.027-1.875 7.234zm0 0M748.783 249.906v16.11c0 2.023.457 3.53 1.375 4.53.926.993 2.375 1.485 4.344 1.485 2.593 0 4.488-.707 5.687-2.125 1.207-1.414 1.813-3.734 1.813-6.953v-13.047h3.765v24.828h-3.11l-.546-3.328h-.203c-.774 1.219-1.84 2.157-3.203 2.813-1.367.644-2.93.969-4.688.969-3.023 0-5.281-.72-6.781-2.157s-2.25-3.734-2.25-6.89v-16.235zm0 0M785.062 249.453c1.102 0 2.094.09 2.969.266l-.516 3.484c-1.03-.219-1.937-.328-2.718-.328-2.012 0-3.73.82-5.157 2.453-1.43 1.625-2.14 3.652-2.14 6.078v13.328h-3.766v-24.828h3.11l.421 4.594h.188c.926-1.613 2.035-2.86 3.328-3.734a7.508 7.508 0 0 1 4.281-1.313zm0 0M820.013 274.734l-.75-3.53h-.187c-1.243 1.554-2.477 2.605-3.704 3.155-1.23.551-2.765.829-4.609.829-2.46 0-4.39-.633-5.797-1.907-1.398-1.27-2.094-3.07-2.094-5.406 0-5.02 4.008-7.648 12.032-7.89l4.218-.141v-1.531c0-1.946-.421-3.383-1.265-4.313-.836-.937-2.172-1.406-4.016-1.406-2.062 0-4.402.636-7.015 1.906l-1.157-2.875a17.385 17.385 0 0 1 4.016-1.562 17.226 17.226 0 0 1 4.39-.579c2.958 0 5.149.664 6.579 1.985 1.425 1.312 2.14 3.418 2.14 6.312v16.953zm-8.5-2.656c2.344 0 4.18-.64 5.516-1.922 1.332-1.281 2-3.078 2-5.39v-2.25l-3.75.156c-3 .117-5.164.586-6.485 1.406-1.312.824-1.968 2.102-1.968 3.828 0 1.367.41 2.403 1.234 3.11.82.71 1.973 1.062 3.453 1.062zm0 0M847.54 274.734v-16.062c0-2.031-.464-3.54-1.39-4.531-.918-1-2.36-1.5-4.328-1.5-2.594 0-4.496.703-5.703 2.109-1.211 1.406-1.813 3.727-1.813 6.953v13.031h-3.765v-24.828h3.062l.61 3.39h.187c.77-1.218 1.848-2.16 3.234-2.827 1.395-.676 2.942-1.016 4.64-1.016 3 0 5.255.727 6.767 2.172 1.507 1.438 2.265 3.742 2.265 6.906v16.203zm0 0M875.054 267.953c0 2.313-.867 4.102-2.593 5.36-1.72 1.25-4.137 1.875-7.25 1.875-3.293 0-5.86-.52-7.704-1.563v-3.484a18.405 18.405 0 0 0 3.844 1.422c1.363.343 2.68.515 3.953.515 1.957 0 3.461-.312 4.516-.937 1.062-.625 1.594-1.578 1.594-2.86 0-.968-.418-1.797-1.25-2.484-.836-.688-2.47-1.5-4.907-2.438-2.312-.863-3.96-1.613-4.937-2.25-.969-.644-1.695-1.375-2.172-2.187-.469-.82-.703-1.797-.703-2.922 0-2.031.82-3.629 2.469-4.797 1.644-1.164 3.898-1.75 6.765-1.75 2.676 0 5.29.543 7.844 1.625l-1.328 3.063c-2.5-1.032-4.762-1.547-6.781-1.547-1.782 0-3.125.281-4.032.844-.906.554-1.359 1.324-1.359 2.312 0 .668.164 1.234.5 1.703.344.461.89.902 1.64 1.328.758.43 2.212 1.043 4.36 1.844 2.945 1.063 4.938 2.14 5.969 3.234 1.039 1.086 1.562 2.45 1.562 4.094zm0 0M901.442 274.734l-4.547-14.562c-.293-.895-.828-2.922-1.609-6.078h-.188c-.605 2.648-1.132 4.683-1.578 6.11l-4.703 14.53h-4.344l-6.78-24.828h3.952c1.594 6.242 2.805 10.992 3.641 14.25.844 3.262 1.328 5.461 1.453 6.594h.188c.164-.863.43-1.977.796-3.344.375-1.363.696-2.445.97-3.25l4.546-14.25h4.078l4.438 14.25c.851 2.594 1.43 4.778 1.734 6.547h.172c.062-.539.223-1.379.484-2.515.27-1.133 1.848-7.227 4.735-18.282h3.89l-6.859 24.828zm0 0M927.757 275.188c-3.68 0-6.578-1.114-8.703-3.344-2.117-2.239-3.172-5.348-3.172-9.328 0-4 .984-7.176 2.953-9.532 1.969-2.351 4.613-3.53 7.938-3.53 3.113 0 5.578 1.026 7.39 3.077 1.813 2.043 2.719 4.742 2.719 8.094V263h-17.11c.07 2.918.805 5.133 2.204 6.64 1.406 1.512 3.375 2.266 5.906 2.266 2.676 0 5.32-.562 7.937-1.687v3.36c-1.336.573-2.593.984-3.78 1.234-1.18.25-2.606.375-4.282.375zm-1.031-22.594c-1.993 0-3.578.652-4.766 1.953-1.187 1.305-1.887 3.101-2.094 5.39h12.985c0-2.374-.532-4.19-1.594-5.453-1.055-1.257-2.563-1.89-4.531-1.89zm0 0M954.62 249.453c1.102 0 2.094.09 2.97.266l-.517 3.484c-1.03-.219-1.937-.328-2.718-.328-2.012 0-3.73.82-5.157 2.453-1.43 1.625-2.14 3.652-2.14 6.078v13.328h-3.766v-24.828h3.11l.421 4.594h.188c.926-1.613 2.035-2.86 3.328-3.734a7.508 7.508 0 0 1 4.281-1.313zm0 0M985.852 249.484c3.258 0 5.79 1.118 7.594 3.344 1.813 2.23 2.719 5.387 2.719 9.469 0 4.074-.914 7.242-2.735 9.5-1.824 2.262-4.351 3.39-7.578 3.39-1.617 0-3.093-.296-4.437-.89-1.336-.602-2.453-1.52-3.36-2.75h-.265l-.797 3.187h-2.703V239.47h3.765v8.578c0 1.918-.062 3.637-.187 5.156h.187c1.75-2.476 4.348-3.719 7.797-3.719zm-.547 3.157c-2.574 0-4.43.742-5.562 2.218-1.125 1.47-1.688 3.95-1.688 7.438 0 3.492.579 5.984 1.735 7.484 1.164 1.5 3.035 2.25 5.61 2.25 2.312 0 4.03-.836 5.155-2.515 1.133-1.688 1.704-4.11 1.704-7.266 0-3.227-.57-5.633-1.704-7.219-1.125-1.593-2.875-2.39-5.25-2.39zm0 0M1013.227 275.188c-3.68 0-6.578-1.114-8.703-3.344-2.117-2.239-3.172-5.348-3.172-9.328 0-4 .984-7.176 2.953-9.532 1.969-2.351 4.613-3.53 7.938-3.53 3.113 0 5.578 1.026 7.39 3.077 1.813 2.043 2.719 4.742 2.719 8.094V263h-17.11c.07 2.918.805 5.133 2.204 6.64 1.406 1.512 3.375 2.266 5.906 2.266 2.676 0 5.32-.562 7.937-1.687v3.36c-1.335.573-2.593.984-3.78 1.234-1.18.25-2.606.375-4.282.375zm-1.031-22.594c-1.992 0-3.578.652-4.766 1.953-1.187 1.305-1.887 3.101-2.094 5.39h12.985c0-2.374-.532-4.19-1.594-5.453-1.055-1.257-2.563-1.89-4.531-1.89zm0 0M1032.528 274.734h-3.766V239.47h3.766zm0 0M1061.937 262.297c0 4.043-1.023 7.203-3.062 9.484-2.032 2.274-4.852 3.407-8.453 3.407-2.22 0-4.188-.52-5.907-1.563-1.718-1.039-3.047-2.535-3.984-4.484-.938-1.946-1.406-4.227-1.406-6.844 0-4.05 1.008-7.203 3.031-9.453 2.02-2.258 4.832-3.39 8.437-3.39 3.47 0 6.223 1.155 8.266 3.468 2.05 2.305 3.078 5.43 3.078 9.375zm-18.922 0c0 3.168.633 5.586 1.907 7.25 1.27 1.656 3.132 2.484 5.593 2.484 2.47 0 4.336-.82 5.61-2.468 1.281-1.657 1.922-4.079 1.922-7.266 0-3.156-.641-5.55-1.922-7.188-1.274-1.644-3.157-2.468-5.657-2.468-2.46 0-4.32.808-5.578 2.422-1.25 1.617-1.875 4.027-1.875 7.234zm0 0M1088.81 274.734l-4.547-14.562c-.293-.895-.828-2.922-1.609-6.078h-.188c-.605 2.648-1.132 4.683-1.578 6.11l-4.703 14.53h-4.344l-6.78-24.828h3.952c1.594 6.242 2.805 10.992 3.641 14.25.844 3.262 1.328 5.461 1.453 6.594h.188c.164-.863.43-1.977.796-3.344.375-1.363.696-2.445.97-3.25l4.546-14.25h4.078l4.438 14.25c.851 2.594 1.43 4.778 1.734 6.547h.172c.062-.539.223-1.379.484-2.515.27-1.133 1.848-7.227 4.735-18.282h3.89l-6.859 24.828zm0 0M1104.078 272.328c0-1.008.227-1.773.688-2.297.468-.52 1.132-.781 2-.781.875 0 1.554.262 2.046.781.489.524.735 1.29.735 2.297 0 .992-.25 1.75-.75 2.281-.5.52-1.18.782-2.031.782-.774 0-1.414-.235-1.922-.703-.512-.477-.766-1.266-.766-2.36zm0 0" fill="#0070b6"/></svg>